<?xml version="1.0" encoding="utf-8" standalone="no"?>
<!DOCTYPE svg PUBLIC "-//W3C//DTD SVG 1.1//EN"
  "http://www.w3.org/Graphics/SVG/1.1/DTD/svg11.dtd">
<svg xmlns:xlink="http://www.w3.org/1999/xlink" width="654.220618pt" height="330.881576pt" viewBox="0 0 654.220618 330.881576" xmlns="http://www.w3.org/2000/svg" version="1.1">
 <metadata>
  <rdf:RDF xmlns:dc="http://purl.org/dc/elements/1.1/" xmlns:cc="http://creativecommons.org/ns#" xmlns:rdf="http://www.w3.org/1999/02/22-rdf-syntax-ns#">
   <cc:Work>
    <dc:type rdf:resource="http://purl.org/dc/dcmitype/StillImage"/>
    <dc:date>2024-09-25T17:33:17.421144</dc:date>
    <dc:format>image/svg+xml</dc:format>
    <dc:creator>
     <cc:Agent>
      <dc:title>Matplotlib v3.8.0, https://matplotlib.org/</dc:title>
     </cc:Agent>
    </dc:creator>
   </cc:Work>
  </rdf:RDF>
 </metadata>
 <defs>
  <style type="text/css">*{stroke-linejoin: round; stroke-linecap: butt}</style>
 </defs>
 <g id="figure_1">
  <g id="patch_1">
   <path d="M 0 330.881576 
L 654.220618 330.881576 
L 654.220618 0 
L 0 0 
z
" style="fill: #ffffff"/>
  </g>
  <g id="axes_1">
   <g id="patch_2">
    <path d="M 83.964611 271.9 
L 349.678896 271.9 
L 349.678896 50.14 
L 83.964611 50.14 
z
" style="fill: #ffffff"/>
   </g>
   <g id="matplotlib.axis_1">
    <g id="xtick_1">
     <g id="line2d_1">
      <defs>
       <path id="m587dc8dc76" d="M 0 0 
L 0 -8 
" style="stroke: #000000; stroke-width: 2"/>
      </defs>
      <g>
       <use xlink:href="#m587dc8dc76" x="96.042533" y="271.9" style="stroke: #000000; stroke-width: 2"/>
      </g>
     </g>
     <g id="text_1">
      <!-- $\mathdefault{0}$ -->
      <g transform="translate(90.331223 292.696254) scale(0.25 -0.25)">
       <defs>
        <path id="CMR17-30" d="M 2688 2025 
C 2688 2416 2682 3080 2413 3591 
C 2176 4039 1798 4198 1466 4198 
C 1158 4198 768 4058 525 3597 
C 269 3118 243 2524 243 2025 
C 243 1661 250 1106 448 619 
C 723 -39 1216 -128 1466 -128 
C 1760 -128 2208 -7 2470 600 
C 2662 1042 2688 1559 2688 2025 
z
M 1466 -26 
C 1056 -26 813 325 723 812 
C 653 1188 653 1738 653 2096 
C 653 2588 653 2997 736 3387 
C 858 3929 1216 4096 1466 4096 
C 1728 4096 2067 3923 2189 3400 
C 2272 3036 2278 2607 2278 2096 
C 2278 1680 2278 1169 2202 792 
C 2067 95 1690 -26 1466 -26 
z
" transform="scale(0.015625)"/>
       </defs>
       <use xlink:href="#CMR17-30" transform="scale(0.996264)"/>
      </g>
     </g>
    </g>
    <g id="xtick_2">
     <g id="line2d_2">
      <g>
       <use xlink:href="#m587dc8dc76" x="216.821754" y="271.9" style="stroke: #000000; stroke-width: 2"/>
      </g>
     </g>
     <g id="text_2">
      <!-- $\mathdefault{100}$ -->
      <g transform="translate(199.687825 292.696254) scale(0.25 -0.25)">
       <defs>
        <path id="CMR17-31" d="M 1702 4058 
C 1702 4192 1696 4192 1606 4192 
C 1357 3916 979 3827 621 3827 
C 602 3827 570 3827 563 3808 
C 557 3795 557 3782 557 3648 
C 755 3648 1088 3686 1344 3839 
L 1344 461 
C 1344 236 1331 160 781 160 
L 589 160 
L 589 0 
C 896 0 1216 0 1523 0 
C 1830 0 2150 0 2458 0 
L 2458 160 
L 2266 160 
C 1715 160 1702 230 1702 458 
L 1702 4058 
z
" transform="scale(0.015625)"/>
       </defs>
       <use xlink:href="#CMR17-31" transform="scale(0.996264)"/>
       <use xlink:href="#CMR17-30" transform="translate(45.690477 0) scale(0.996264)"/>
       <use xlink:href="#CMR17-30" transform="translate(91.380954 0) scale(0.996264)"/>
      </g>
     </g>
    </g>
    <g id="xtick_3">
     <g id="line2d_3">
      <g>
       <use xlink:href="#m587dc8dc76" x="337.600974" y="271.9" style="stroke: #000000; stroke-width: 2"/>
      </g>
     </g>
     <g id="text_3">
      <!-- $\mathdefault{200}$ -->
      <g transform="translate(320.467045 292.696254) scale(0.25 -0.25)">
       <defs>
        <path id="CMR17-32" d="M 2669 989 
L 2554 989 
C 2490 536 2438 459 2413 420 
C 2381 369 1920 369 1830 369 
L 602 369 
C 832 619 1280 1072 1824 1597 
C 2214 1967 2669 2402 2669 3035 
C 2669 3790 2067 4224 1395 4224 
C 691 4224 262 3604 262 3030 
C 262 2780 448 2748 525 2748 
C 589 2748 781 2787 781 3010 
C 781 3207 614 3264 525 3264 
C 486 3264 448 3258 422 3245 
C 544 3790 915 4058 1306 4058 
C 1862 4058 2227 3617 2227 3035 
C 2227 2479 1901 2000 1536 1584 
L 262 146 
L 262 0 
L 2515 0 
L 2669 989 
z
" transform="scale(0.015625)"/>
       </defs>
       <use xlink:href="#CMR17-32" transform="scale(0.996264)"/>
       <use xlink:href="#CMR17-30" transform="translate(45.690477 0) scale(0.996264)"/>
       <use xlink:href="#CMR17-30" transform="translate(91.380954 0) scale(0.996264)"/>
      </g>
     </g>
    </g>
    <g id="text_4">
     <!-- $t$ -->
     <g transform="translate(212.418466 318.837042) scale(0.25 -0.25)">
      <defs>
       <path id="CMMI12-74" d="M 1286 2566 
L 1875 2566 
C 1997 2566 2061 2566 2061 2681 
C 2061 2752 2022 2752 1894 2752 
L 1331 2752 
L 1568 3692 
C 1594 3781 1594 3794 1594 3840 
C 1594 3943 1510 4000 1427 4000 
C 1376 4000 1229 3981 1178 3775 
L 928 2752 
L 326 2752 
C 198 2752 141 2752 141 2630 
C 141 2566 186 2566 307 2566 
L 877 2566 
L 454 881 
C 403 658 384 594 384 511 
C 384 211 595 -64 954 -64 
C 1600 -64 1946 868 1946 912 
C 1946 951 1920 970 1882 970 
C 1869 970 1843 970 1830 944 
C 1824 938 1818 931 1773 829 
C 1638 511 1344 64 973 64 
C 781 64 768 224 768 364 
C 768 370 768 492 787 568 
L 1286 2566 
z
" transform="scale(0.015625)"/>
      </defs>
      <use xlink:href="#CMMI12-74" transform="scale(0.996264)"/>
     </g>
    </g>
   </g>
   <g id="matplotlib.axis_2">
    <g id="ytick_1">
     <g id="line2d_4">
      <defs>
       <path id="maf6a30d4f6" d="M 0 0 
L 8 0 
" style="stroke: #000000; stroke-width: 2"/>
      </defs>
      <g>
       <use xlink:href="#maf6a30d4f6" x="83.964611" y="271.9" style="stroke: #000000; stroke-width: 2"/>
      </g>
     </g>
     <g id="text_5">
      <!-- $\mathdefault{10^{-2}}$ -->
      <g transform="translate(36.063336 280.548127) scale(0.25 -0.25)">
       <defs>
        <path id="CMSY10-0" d="M 4218 1472 
C 4326 1472 4442 1472 4442 1600 
C 4442 1728 4326 1728 4218 1728 
L 755 1728 
C 646 1728 531 1728 531 1600 
C 531 1472 646 1472 755 1472 
L 4218 1472 
z
" transform="scale(0.015625)"/>
       </defs>
       <use xlink:href="#CMR17-31" transform="scale(0.996264)"/>
       <use xlink:href="#CMR17-30" transform="translate(45.690477 0) scale(0.996264)"/>
       <use xlink:href="#CMSY10-0" transform="translate(91.380954 36.153639) scale(0.697382)"/>
       <use xlink:href="#CMR17-32" transform="translate(145.621947 36.153639) scale(0.697382)"/>
      </g>
     </g>
    </g>
    <g id="ytick_2">
     <g id="line2d_5">
      <g>
       <use xlink:href="#maf6a30d4f6" x="83.964611" y="182.376728" style="stroke: #000000; stroke-width: 2"/>
      </g>
     </g>
     <g id="text_6">
      <!-- $\mathdefault{10^{-1}}$ -->
      <g transform="translate(36.063336 191.024855) scale(0.25 -0.25)">
       <use xlink:href="#CMR17-31" transform="scale(0.996264)"/>
       <use xlink:href="#CMR17-30" transform="translate(45.690477 0) scale(0.996264)"/>
       <use xlink:href="#CMSY10-0" transform="translate(91.380954 36.153639) scale(0.697382)"/>
       <use xlink:href="#CMR17-31" transform="translate(145.621947 36.153639) scale(0.697382)"/>
      </g>
     </g>
    </g>
    <g id="ytick_3">
     <g id="line2d_6">
      <g>
       <use xlink:href="#maf6a30d4f6" x="83.964611" y="92.853456" style="stroke: #000000; stroke-width: 2"/>
      </g>
     </g>
     <g id="text_7">
      <!-- $\mathdefault{10^{0}}$ -->
      <g transform="translate(49.623584 101.501583) scale(0.25 -0.25)">
       <use xlink:href="#CMR17-31" transform="scale(0.996264)"/>
       <use xlink:href="#CMR17-30" transform="translate(45.690477 0) scale(0.996264)"/>
       <use xlink:href="#CMR17-30" transform="translate(91.380954 36.153639) scale(0.697382)"/>
      </g>
     </g>
    </g>
    <g id="ytick_4">
     <g id="line2d_7">
      <defs>
       <path id="mcff79f224b" d="M 0 0 
L -2 0 
" style="stroke: #000000; stroke-width: 0.6"/>
      </defs>
      <g>
       <use xlink:href="#mcff79f224b" x="83.964611" y="244.95081" style="stroke: #000000; stroke-width: 0.6"/>
      </g>
     </g>
    </g>
    <g id="ytick_5">
     <g id="line2d_8">
      <g>
       <use xlink:href="#mcff79f224b" x="83.964611" y="229.186544" style="stroke: #000000; stroke-width: 0.6"/>
      </g>
     </g>
    </g>
    <g id="ytick_6">
     <g id="line2d_9">
      <g>
       <use xlink:href="#mcff79f224b" x="83.964611" y="218.00162" style="stroke: #000000; stroke-width: 0.6"/>
      </g>
     </g>
    </g>
    <g id="ytick_7">
     <g id="line2d_10">
      <g>
       <use xlink:href="#mcff79f224b" x="83.964611" y="209.325918" style="stroke: #000000; stroke-width: 0.6"/>
      </g>
     </g>
    </g>
    <g id="ytick_8">
     <g id="line2d_11">
      <g>
       <use xlink:href="#mcff79f224b" x="83.964611" y="202.237354" style="stroke: #000000; stroke-width: 0.6"/>
      </g>
     </g>
    </g>
    <g id="ytick_9">
     <g id="line2d_12">
      <g>
       <use xlink:href="#mcff79f224b" x="83.964611" y="196.244058" style="stroke: #000000; stroke-width: 0.6"/>
      </g>
     </g>
    </g>
    <g id="ytick_10">
     <g id="line2d_13">
      <g>
       <use xlink:href="#mcff79f224b" x="83.964611" y="191.052429" style="stroke: #000000; stroke-width: 0.6"/>
      </g>
     </g>
    </g>
    <g id="ytick_11">
     <g id="line2d_14">
      <g>
       <use xlink:href="#mcff79f224b" x="83.964611" y="186.473088" style="stroke: #000000; stroke-width: 0.6"/>
      </g>
     </g>
    </g>
    <g id="ytick_12">
     <g id="line2d_15">
      <g>
       <use xlink:href="#mcff79f224b" x="83.964611" y="155.427538" style="stroke: #000000; stroke-width: 0.6"/>
      </g>
     </g>
    </g>
    <g id="ytick_13">
     <g id="line2d_16">
      <g>
       <use xlink:href="#mcff79f224b" x="83.964611" y="139.663272" style="stroke: #000000; stroke-width: 0.6"/>
      </g>
     </g>
    </g>
    <g id="ytick_14">
     <g id="line2d_17">
      <g>
       <use xlink:href="#mcff79f224b" x="83.964611" y="128.478348" style="stroke: #000000; stroke-width: 0.6"/>
      </g>
     </g>
    </g>
    <g id="ytick_15">
     <g id="line2d_18">
      <g>
       <use xlink:href="#mcff79f224b" x="83.964611" y="119.802646" style="stroke: #000000; stroke-width: 0.6"/>
      </g>
     </g>
    </g>
    <g id="ytick_16">
     <g id="line2d_19">
      <g>
       <use xlink:href="#mcff79f224b" x="83.964611" y="112.714082" style="stroke: #000000; stroke-width: 0.6"/>
      </g>
     </g>
    </g>
    <g id="ytick_17">
     <g id="line2d_20">
      <g>
       <use xlink:href="#mcff79f224b" x="83.964611" y="106.720786" style="stroke: #000000; stroke-width: 0.6"/>
      </g>
     </g>
    </g>
    <g id="ytick_18">
     <g id="line2d_21">
      <g>
       <use xlink:href="#mcff79f224b" x="83.964611" y="101.529157" style="stroke: #000000; stroke-width: 0.6"/>
      </g>
     </g>
    </g>
    <g id="ytick_19">
     <g id="line2d_22">
      <g>
       <use xlink:href="#mcff79f224b" x="83.964611" y="96.949816" style="stroke: #000000; stroke-width: 0.6"/>
      </g>
     </g>
    </g>
    <g id="ytick_20">
     <g id="line2d_23">
      <g>
       <use xlink:href="#mcff79f224b" x="83.964611" y="65.904266" style="stroke: #000000; stroke-width: 0.6"/>
      </g>
     </g>
    </g>
    <g id="ytick_21">
     <g id="line2d_24">
      <g>
       <use xlink:href="#mcff79f224b" x="83.964611" y="50.14" style="stroke: #000000; stroke-width: 0.6"/>
      </g>
     </g>
    </g>
    <g id="text_8">
     <!-- $\epsilon_\alpha (t)$ -->
     <g transform="translate(25.857528 184.900708) rotate(-90) scale(0.25 -0.25)">
      <defs>
       <path id="CMMI12-f" d="M 1862 1467 
C 1958 1467 2067 1467 2067 1569 
C 2067 1652 2003 1652 1888 1652 
L 851 1652 
C 1011 2226 1389 2573 1958 2573 
L 2144 2573 
C 2253 2573 2349 2573 2349 2675 
C 2349 2758 2278 2758 2163 2758 
L 1946 2758 
C 1158 2758 294 2131 294 1126 
C 294 416 774 -64 1408 -64 
C 1818 -64 2221 194 2221 258 
C 2221 296 2202 336 2163 336 
C 2144 336 2131 329 2099 304 
C 1856 142 1619 64 1427 64 
C 1088 64 730 290 730 918 
C 730 1040 742 1208 800 1467 
L 1862 1467 
z
" transform="scale(0.015625)"/>
       <path id="CMMI12-b" d="M 2963 1616 
C 2963 2235 2611 2815 1933 2815 
C 1094 2815 256 1902 256 996 
C 256 441 602 -64 1254 -64 
C 1651 -64 2125 89 2579 472 
C 2669 115 2867 -64 3142 -64 
C 3488 -64 3661 294 3661 377 
C 3661 434 3616 434 3597 434 
C 3546 434 3539 415 3520 364 
C 3462 204 3315 64 3162 64 
C 2963 64 2963 472 2963 862 
C 3616 1641 3770 2446 3770 2452 
C 3770 2510 3718 2510 3699 2510 
C 3642 2510 3635 2491 3610 2376 
C 3526 2095 3360 1597 2963 1073 
L 2963 1616 
z
M 2560 626 
C 1997 121 1491 64 1267 64 
C 813 64 685 466 685 766 
C 685 1040 826 1692 1024 2044 
C 1286 2491 1645 2688 1933 2688 
C 2554 2688 2554 1877 2554 1341 
C 2554 1182 2547 1016 2547 856 
C 2547 728 2554 696 2560 626 
z
" transform="scale(0.015625)"/>
       <path id="CMR17-28" d="M 1958 -1561 
C 1958 -1555 1958 -1542 1939 -1523 
C 1645 -1224 858 -407 858 1581 
C 858 3569 1632 4379 1946 4697 
C 1946 4704 1958 4717 1958 4736 
C 1958 4755 1939 4768 1914 4768 
C 1843 4768 1299 4296 986 3594 
C 666 2887 576 2199 576 1588 
C 576 1128 621 351 1005 -471 
C 1312 -1135 1837 -1600 1914 -1600 
C 1946 -1600 1958 -1587 1958 -1561 
z
" transform="scale(0.015625)"/>
       <path id="CMR17-29" d="M 1683 1581 
C 1683 2040 1638 2817 1254 3639 
C 947 4303 422 4768 346 4768 
C 326 4768 301 4761 301 4729 
C 301 4717 307 4710 314 4697 
C 621 4378 1402 3568 1402 1584 
C 1402 -407 627 -1217 314 -1537 
C 307 -1549 301 -1556 301 -1568 
C 301 -1600 326 -1600 346 -1600 
C 416 -1600 960 -1128 1274 -426 
C 1594 281 1683 969 1683 1581 
z
" transform="scale(0.015625)"/>
      </defs>
      <use xlink:href="#CMMI12-f" transform="scale(0.996264)"/>
      <use xlink:href="#CMMI12-b" transform="translate(39.388958 -14.943915) scale(0.697382)"/>
      <use xlink:href="#CMR17-28" transform="translate(83.763615 0) scale(0.996264)"/>
      <use xlink:href="#CMMI12-74" transform="translate(119.044383 0) scale(0.996264)"/>
      <use xlink:href="#CMR17-29" transform="translate(154.270713 0) scale(0.996264)"/>
     </g>
    </g>
   </g>
   <g id="line2d_25">
    <path d="M 96.042533 101.238649 
L 97.250325 101.335244 
L 98.458117 100.950296 
L 99.665909 105.517669 
L 100.873702 101.529157 
L 102.081494 101.529157 
L 103.289286 100.285674 
L 104.497078 102.018214 
L 105.70487 104.03838 
L 106.912663 105.517669 
L 108.120455 103.319321 
L 109.328247 105.089241 
L 110.536039 110.326547 
L 111.743832 107.055475 
L 112.951624 106.49925 
L 114.159416 108.773551 
L 115.367208 112.714082 
L 116.575 110.94077 
L 117.782793 117.390743 
L 118.990585 116.523508 
L 120.198377 113.632021 
L 121.406169 114.982138 
L 122.613961 113.632021 
L 123.821754 111.439231 
L 125.029546 114.301219 
L 126.237338 114.436452 
L 127.44513 115.815301 
L 128.652922 118.577995 
L 129.860715 119.032731 
L 131.068507 119.032731 
L 132.276299 121.87884 
L 133.484091 117.244854 
L 134.691883 116.38083 
L 135.899676 119.647438 
L 137.107468 119.958476 
L 138.31526 121.55212 
L 139.523052 124.072189 
L 140.730845 124.772739 
L 141.938637 127.518312 
L 143.146429 123.213888 
L 144.354221 128.869099 
L 145.562013 128.478348 
L 146.769806 123.554938 
L 147.977598 126.581412 
L 149.18539 123.726592 
L 150.393182 128.869099 
L 151.600974 131.299857 
L 152.808767 136.194013 
L 154.016559 134.342261 
L 155.224351 130.065485 
L 156.432143 130.677772 
L 157.639935 129.46269 
L 158.847728 132.145096 
L 160.05552 133.44844 
L 161.263312 138.138392 
L 162.471104 134.568964 
L 163.678896 136.671068 
L 164.886689 143.759632 
L 166.094481 139.663272 
L 167.302273 141.250409 
L 168.510065 141.794187 
L 169.717857 143.187865 
L 170.92565 150.333229 
L 172.133442 149.323316 
L 173.341234 141.250409 
L 174.549026 136.671068 
L 175.756819 144.929028 
L 176.964611 150.675782 
L 178.172403 139.404936 
L 179.380195 148.016321 
L 180.587987 158.249047 
L 181.79578 159.523898 
L 183.003572 159.523898 
L 184.211364 174.013313 
L 185.419156 156.611775 
L 186.626948 155.818289 
L 187.834741 149.993668 
L 189.042533 149.993668 
L 190.250325 160.397631 
L 191.458117 154.657622 
L 192.665909 168.743377 
L 193.873702 162.671932 
L 195.081494 161.291451 
L 196.289286 149.993668 
L 197.497078 166.097495 
L 198.70487 169.294868 
L 199.912663 170.421888 
L 201.120455 151.370076 
L 202.328247 157.83322 
L 203.536039 153.162074 
L 204.743832 153.902657 
L 205.951624 166.097495 
L 207.159416 162.206304 
L 208.367208 168.199599 
L 209.575 170.421888 
L 210.782793 169.854294 
L 211.990585 175.288164 
L 213.198377 158.66937 
L 214.406169 174.013313 
L 215.613961 165.589259 
L 216.821754 161.291451 
L 218.029546 177.282419 
L 219.237338 174.013313 
L 220.44513 168.743377 
L 221.652922 186.473088 
L 222.860715 169.294868 
L 224.068507 167.134342 
L 225.276299 171.582555 
L 226.484091 183.162198 
L 227.691883 167.663323 
L 230.107468 169.854294 
L 231.31526 181.606812 
L 232.523052 199.728131 
L 233.730845 177.282419 
L 234.938637 182.376728 
L 236.146429 176.606238 
L 237.354221 207.801038 
L 238.562013 194.083532 
L 239.769806 189.155494 
L 240.977598 180.111264 
L 242.18539 184.78241 
L 243.393182 181.606812 
L 244.600974 183.162198 
L 245.808767 209.325918 
L 247.016559 198.531745 
L 248.224351 199.728131 
L 249.432143 197.371078 
L 250.639935 183.963865 
L 251.847728 184.78241 
L 253.05552 190.092394 
L 254.263312 224.320268 
L 255.471104 224.320268 
L 256.678896 180.851848 
L 257.886689 184.78241 
L 259.094481 187.346821 
L 260.302273 226.677321 
L 261.510065 216.104684 
L 262.717857 196.244058 
L 263.92565 229.186544 
L 265.133442 222.09798 
L 266.341234 199.728131 
L 267.549026 218.00162 
L 268.756819 207.801038 
L 269.964611 186.473088 
L 271.172403 196.244058 
L 272.380195 199.728131 
L 273.587987 206.333714 
L 274.79578 206.333714 
L 276.003572 196.244058 
L 277.211364 231.86895 
L 278.419156 202.237354 
L 279.626948 231.86895 
L 280.834741 198.531745 
L 282.042533 173.391228 
L 283.250325 183.162198 
L 284.458117 191.052429 
L 285.665909 231.86895 
L 286.873702 224.320268 
L 288.081494 183.162198 
L 289.289286 194.083532 
L 290.497078 210.913055 
L 291.70487 175.288164 
L 292.892993 331.881576 
M 292.957611 331.881576 
L 294.120455 264.811436 
L 295.328247 249.04717 
L 296.536039 280.575701 
L 297.743832 258.81814 
L 297.744819 331.881576 
M 300.15772 331.881576 
L 300.159416 206.333714 
L 301.367208 187.346821 
L 302.575 210.913055 
L 303.782793 241.245201 
L 304.990585 226.677321 
L 306.198377 193.046685 
L 306.200252 331.881576 
M 308.6121 331.881576 
L 308.613961 194.083532 
L 309.821754 185.61856 
L 311.029546 229.186544 
L 312.207598 331.881576 
M 312.269748 331.881576 
L 313.44513 237.862246 
L 314.652922 241.245201 
L 315.860715 212.56775 
L 317.068507 206.333714 
L 318.276299 196.244058 
L 319.484091 222.09798 
L 319.485575 331.881576 
M 321.897689 331.881576 
L 321.899676 184.78241 
L 323.107468 271.9 
L 323.108279 331.881576 
M 325.521376 331.881576 
L 325.523052 207.801038 
L 326.730845 244.95081 
L 326.732019 331.881576 
M 329.144773 331.881576 
L 329.146429 209.325918 
L 330.354221 206.333714 
L 330.355917 331.881576 
M 332.8279 331.881576 
L 335.18539 226.677321 
L 336.393182 241.245201 
L 337.567388 331.881576 
L 337.567388 331.881576 
" clip-path="url(#pcc8099202f)" style="fill: none; stroke: #00bfff; stroke-width: 1.5; stroke-linecap: square"/>
   </g>
   <g id="line2d_26">
    <path d="M 96.042533 97.603664 
L 102.081494 100.843274 
L 109.328247 105.018554 
L 116.575 109.451534 
L 126.237338 115.658085 
L 138.31526 123.707081 
L 184.211364 154.557553 
L 201.120455 165.53319 
L 218.029546 176.242872 
L 236.146429 187.445871 
L 255.471104 199.126122 
L 276.003572 211.28086 
L 298.951624 224.610158 
L 324.31526 239.094253 
L 337.600974 246.59575 
L 337.600974 246.59575 
" clip-path="url(#pcc8099202f)" style="fill: none; stroke-dasharray: 3.7,1.6; stroke-dashoffset: 0; stroke: #00008b"/>
   </g>
   <g id="line2d_27">
    <path d="M 96.042533 60.809957 
L 97.250325 60.673777 
L 98.458117 59.800044 
L 99.665909 60.301722 
L 100.873702 61.394105 
L 102.081494 61.186932 
L 103.289286 61.567597 
L 104.497078 60.369104 
L 105.70487 61.952026 
L 106.912663 61.881847 
L 108.120455 62.304837 
L 109.328247 61.987164 
L 110.536039 62.022333 
L 111.743832 62.876079 
L 112.951624 62.948078 
L 114.159416 62.840129 
L 115.367208 60.980856 
L 116.575 61.987164 
L 117.782793 61.428742 
L 118.990585 62.411307 
L 120.198377 63.092477 
L 121.406169 63.382895 
L 122.613961 63.492363 
L 123.821754 62.984127 
L 125.029546 63.237415 
L 126.237338 63.020211 
L 127.44513 62.948078 
L 128.652922 63.97032 
L 129.860715 63.675498 
L 131.068507 64.304689 
L 132.276299 63.933345 
L 134.691883 63.712229 
L 137.107468 64.416788 
L 139.523052 64.118573 
L 140.730845 63.638802 
L 141.938637 64.155725 
L 143.146429 64.118573 
L 144.354221 64.52921 
L 145.562013 64.267395 
L 147.977598 64.267395 
L 149.18539 64.717307 
L 152.808767 64.379385 
L 156.432143 64.755035 
L 157.639935 64.52921 
L 158.847728 64.868442 
L 160.05552 64.679614 
L 162.471104 64.792801 
L 163.678896 64.792801 
L 164.886689 64.416788 
L 166.094481 64.98218 
L 167.302273 64.868442 
L 168.510065 65.13435 
L 169.717857 64.379385 
L 170.92565 64.717307 
L 174.549026 65.020167 
L 175.756819 64.755035 
L 176.964611 64.906317 
L 178.172403 65.24887 
L 179.380195 64.98218 
L 181.79578 64.830603 
L 183.003572 65.058191 
L 184.211364 64.792801 
L 185.419156 64.94423 
L 186.626948 65.24887 
L 187.834741 65.020167 
L 189.042533 65.020167 
L 190.250325 64.792801 
L 191.458117 64.98218 
L 192.665909 65.058191 
L 193.873702 65.020167 
L 195.081494 64.792801 
L 196.289286 65.058191 
L 197.497078 64.792801 
L 198.70487 65.058191 
L 199.912663 64.717307 
L 201.120455 64.755035 
L 202.328247 65.13435 
L 203.536039 65.020167 
L 204.743832 65.058191 
L 205.951624 64.94423 
L 207.159416 64.566757 
L 208.367208 64.679614 
L 209.575 65.172486 
L 210.782793 64.830603 
L 211.990585 64.044376 
L 213.198377 64.454226 
L 214.406169 64.717307 
L 215.613961 64.679614 
L 216.821754 63.675498 
L 218.029546 63.712229 
L 219.237338 64.868442 
L 220.44513 65.440489 
L 221.652922 65.478927 
L 222.860715 65.287118 
L 224.068507 65.210659 
L 225.276299 65.287118 
L 226.484091 65.020167 
L 227.691883 65.172486 
L 230.107468 65.096252 
L 231.31526 65.058191 
L 232.523052 65.172486 
L 234.938637 64.906317 
L 237.354221 65.058191 
L 238.562013 65.020167 
L 239.769806 65.363728 
L 240.977598 65.096252 
L 242.18539 65.096252 
L 243.393182 65.478927 
L 244.600974 65.325404 
L 245.808767 64.830603 
L 247.016559 64.94423 
L 248.224351 65.287118 
L 249.432143 63.41935 
L 250.639935 63.638802 
L 251.847728 62.948078 
L 253.05552 63.638802 
L 254.263312 63.97032 
L 255.471104 62.553723 
L 256.678896 64.230136 
L 257.886689 64.267395 
L 259.094481 63.785794 
L 260.302273 65.13435 
L 261.510065 64.641959 
L 262.717857 64.379385 
L 263.92565 64.379385 
L 266.341234 65.440489 
L 268.756819 64.906317 
L 269.964611 64.868442 
L 272.380195 65.363728 
L 273.587987 65.40209 
L 274.79578 65.210659 
L 276.003572 65.24887 
L 277.211364 65.058191 
L 278.419156 65.40209 
L 279.626948 65.096252 
L 280.834741 65.363728 
L 282.042533 65.020167 
L 283.250325 64.118573 
L 284.458117 63.822629 
L 285.665909 65.058191 
L 286.873702 63.896405 
L 288.081494 63.41935 
L 289.289286 64.454226 
L 290.497078 64.52921 
L 291.70487 63.455839 
L 292.912663 63.859499 
L 294.120455 64.679614 
L 295.328247 64.379385 
L 296.536039 64.60434 
L 297.743832 64.60434 
L 298.951624 65.058191 
L 300.159416 64.641959 
L 301.367208 65.172486 
L 302.575 64.94423 
L 303.782793 65.363728 
L 304.990585 65.440489 
L 306.198377 64.906317 
L 307.406169 65.172486 
L 309.821754 64.98218 
L 311.029546 65.210659 
L 312.237338 64.94423 
L 313.44513 65.096252 
L 314.652922 64.755035 
L 315.860715 65.210659 
L 317.068507 65.210659 
L 318.276299 64.868442 
L 320.691883 65.325404 
L 323.107468 64.755035 
L 324.31526 64.98218 
L 325.523052 65.020167 
L 326.730845 64.906317 
L 327.938637 65.020167 
L 329.146429 63.164878 
L 330.354221 63.128661 
L 331.562013 63.675498 
L 332.769806 63.712229 
L 333.977598 63.896405 
L 335.18539 63.675498 
L 336.393182 61.916921 
L 337.600974 63.128661 
L 337.600974 63.128661 
" clip-path="url(#pcc8099202f)" style="fill: none; stroke: #ff69b4; stroke-width: 1.5; stroke-linecap: square"/>
   </g>
   <g id="line2d_28">
    <path d="M 96.042533 61.090392 
L 100.873702 61.961795 
L 106.912663 62.816675 
L 114.159416 63.583043 
L 122.613961 64.225132 
L 132.276299 64.736182 
L 145.562013 65.192388 
L 162.471104 65.526357 
L 186.626948 65.752402 
L 226.484091 65.86971 
L 337.600974 65.903353 
L 337.600974 65.903353 
" clip-path="url(#pcc8099202f)" style="fill: none; stroke-dasharray: 3.7,1.6; stroke-dashoffset: 0; stroke: #bf00bf"/>
   </g>
   <g id="patch_3">
    <path d="M 83.964611 271.9 
L 83.964611 50.14 
" style="fill: none; stroke: #000000; stroke-width: 3; stroke-linejoin: miter; stroke-linecap: square"/>
   </g>
   <g id="patch_4">
    <path d="M 349.678896 271.9 
L 349.678896 50.14 
" style="fill: none; stroke: #000000; stroke-width: 3; stroke-linejoin: miter; stroke-linecap: square"/>
   </g>
   <g id="patch_5">
    <path d="M 83.964611 271.9 
L 349.678896 271.9 
" style="fill: none; stroke: #000000; stroke-width: 3; stroke-linejoin: miter; stroke-linecap: square"/>
   </g>
   <g id="patch_6">
    <path d="M 83.964611 50.14 
L 349.678896 50.14 
" style="fill: none; stroke: #000000; stroke-width: 3; stroke-linejoin: miter; stroke-linecap: square"/>
   </g>
   <g id="legend_1">
    <g id="patch_7">
     <path d="M 154.607468 52.063336 
L 586.732835 52.063336 
Q 591.732835 52.063336 591.732835 47.063336 
L 591.732835 12.2 
Q 591.732835 7.2 586.732835 7.2 
L 154.607468 7.2 
Q 149.607468 7.2 149.607468 12.2 
L 149.607468 47.063336 
Q 149.607468 52.063336 154.607468 52.063336 
L 154.607468 52.063336 
z
" style="fill: none; opacity: 0"/>
    </g>
    <g id="line2d_29">
     <path d="M 159.607468 27.107528 
L 172.107468 27.107528 
L 184.607468 27.107528 
" style="fill: none; stroke: #00bfff; stroke-width: 1.5; stroke-linecap: square"/>
    </g>
    <g id="text_9">
     <!-- $\epsilon_1$ -->
     <g transform="translate(197.107468 35.857528) scale(0.25 -0.25)">
      <use xlink:href="#CMMI12-f" transform="scale(0.996264)"/>
      <use xlink:href="#CMR17-31" transform="translate(39.388958 -14.943915) scale(0.697382)"/>
     </g>
    </g>
    <g id="line2d_30">
     <path d="M 234.950484 27.107528 
L 247.450484 27.107528 
L 259.950484 27.107528 
" style="fill: none; stroke-dasharray: 3.7,1.6; stroke-dashoffset: 0; stroke: #00008b"/>
    </g>
    <g id="text_10">
     <!-- $\epsilon_1$$\rm\:(ideal)$ -->
     <g transform="translate(272.450484 35.857528) scale(0.25 -0.25)">
      <defs>
       <path id="CMR17-69" d="M 992 3909 
C 992 4049 877 4170 730 4170 
C 589 4170 467 4056 467 3909 
C 467 3769 582 3648 730 3648 
C 870 3648 992 3763 992 3909 
z
M 243 2706 
L 243 2541 
C 602 2541 653 2502 653 2197 
L 653 427 
C 653 184 627 153 218 153 
L 218 -13 
C 371 0 646 0 806 0 
C 960 0 1222 0 1370 -13 
L 1370 153 
C 992 153 979 191 979 420 
L 979 2776 
L 243 2706 
z
" transform="scale(0.015625)"/>
       <path id="CMR17-64" d="M 1869 4326 
L 1869 4160 
C 2246 4160 2304 4122 2304 3820 
L 2304 2345 
C 2278 2377 2016 2790 1498 2790 
C 845 2790 211 2208 211 1364 
C 211 525 806 -64 1434 -64 
C 1978 -64 2259 337 2291 380 
L 2291 -63 
L 3066 -63 
L 3066 128 
C 2688 128 2630 166 2630 473 
L 2630 4396 
L 1869 4326 
z
M 2291 755 
C 2291 563 2176 390 2029 262 
C 1811 70 1594 38 1472 38 
C 1286 38 621 134 621 1356 
C 621 2612 1363 2688 1530 2688 
C 1824 2688 2061 2522 2208 2291 
C 2291 2157 2291 2138 2291 2023 
L 2291 755 
z
" transform="scale(0.015625)"/>
       <path id="CMR17-65" d="M 2438 1472 
C 2464 1498 2464 1511 2464 1576 
C 2464 2238 2118 2816 1389 2816 
C 710 2816 173 2169 173 1383 
C 173 551 781 -64 1459 -64 
C 2176 -64 2458 607 2458 740 
C 2458 784 2419 784 2406 784 
C 2362 784 2355 771 2330 696 
C 2189 265 1837 51 1504 51 
C 1229 51 954 203 781 480 
C 582 803 582 1176 582 1472 
L 2438 1472 
z
M 589 1568 
C 634 2505 1126 2714 1382 2714 
C 1818 2714 2112 2297 2118 1568 
L 589 1568 
z
" transform="scale(0.015625)"/>
       <path id="CMR17-61" d="M 2304 1653 
C 2304 2072 2304 2294 2035 2543 
C 1798 2752 1523 2816 1306 2816 
C 800 2816 435 2407 435 1971 
C 435 1728 627 1728 666 1728 
C 749 1728 896 1778 896 1954 
C 896 2112 774 2181 666 2181 
C 640 2181 608 2174 589 2168 
C 723 2592 1069 2714 1293 2714 
C 1613 2714 1965 2429 1965 1885 
L 1965 1600 
C 1587 1600 1133 1549 774 1357 
C 371 1133 256 813 256 570 
C 256 77 832 -64 1171 -64 
C 1523 -64 1850 139 1990 511 
C 2003 233 2182 -18 2464 -18 
C 2598 -18 2938 70 2938 567 
L 2938 920 
L 2822 920 
L 2822 562 
C 2822 178 2650 128 2566 128 
C 2304 128 2304 458 2304 738 
L 2304 1653 
z
M 1965 870 
C 1965 317 1568 38 1216 38 
C 896 38 646 275 646 570 
C 646 761 730 1100 1101 1305 
C 1408 1478 1760 1504 1965 1504 
L 1965 870 
z
" transform="scale(0.015625)"/>
       <path id="CMR17-6c" d="M 979 4396 
L 218 4326 
L 218 4160 
C 595 4160 653 4122 653 3817 
L 653 426 
C 653 184 627 153 218 153 
L 218 -13 
C 371 0 653 0 813 0 
C 979 0 1261 0 1414 -13 
L 1414 153 
C 1005 153 979 178 979 426 
L 979 4396 
z
" transform="scale(0.015625)"/>
      </defs>
      <use xlink:href="#CMMI12-f" transform="scale(0.996264)"/>
      <use xlink:href="#CMR17-31" transform="translate(39.388958 -14.943915) scale(0.697382)"/>
      <use xlink:href="#CMR17-28" transform="translate(94.009479 0) scale(0.996264)"/>
      <use xlink:href="#CMR17-69" transform="translate(129.290247 0) scale(0.996264)"/>
      <use xlink:href="#CMR17-64" transform="translate(154.161306 0) scale(0.996264)"/>
      <use xlink:href="#CMR17-65" transform="translate(205.056675 0) scale(0.996264)"/>
      <use xlink:href="#CMR17-61" transform="translate(245.542336 0) scale(0.996264)"/>
      <use xlink:href="#CMR17-6c" transform="translate(291.232813 0) scale(0.996264)"/>
      <use xlink:href="#CMR17-29" transform="translate(316.103871 0) scale(0.996264)"/>
     </g>
    </g>
    <g id="line2d_31">
     <path d="M 380.670152 27.107528 
L 393.170152 27.107528 
L 405.670152 27.107528 
" style="fill: none; stroke: #ff69b4; stroke-width: 1.5; stroke-linecap: square"/>
    </g>
    <g id="text_11">
     <!-- $\epsilon_2$ -->
     <g transform="translate(418.170152 35.857528) scale(0.25 -0.25)">
      <use xlink:href="#CMMI12-f" transform="scale(0.996264)"/>
      <use xlink:href="#CMR17-32" transform="translate(39.388958 -14.943915) scale(0.697382)"/>
     </g>
    </g>
    <g id="line2d_32">
     <path d="M 456.013168 27.107528 
L 468.513168 27.107528 
L 481.013168 27.107528 
" style="fill: none; stroke-dasharray: 3.7,1.6; stroke-dashoffset: 0; stroke: #bf00bf"/>
    </g>
    <g id="text_12">
     <!-- $\epsilon_2$$\rm\:(ideal)$ -->
     <g transform="translate(493.513168 35.857528) scale(0.25 -0.25)">
      <use xlink:href="#CMMI12-f" transform="scale(0.996264)"/>
      <use xlink:href="#CMR17-32" transform="translate(39.388958 -14.943915) scale(0.697382)"/>
      <use xlink:href="#CMR17-28" transform="translate(94.009479 0) scale(0.996264)"/>
      <use xlink:href="#CMR17-69" transform="translate(129.290247 0) scale(0.996264)"/>
      <use xlink:href="#CMR17-64" transform="translate(154.161306 0) scale(0.996264)"/>
      <use xlink:href="#CMR17-65" transform="translate(205.056675 0) scale(0.996264)"/>
      <use xlink:href="#CMR17-61" transform="translate(245.542336 0) scale(0.996264)"/>
      <use xlink:href="#CMR17-6c" transform="translate(291.232813 0) scale(0.996264)"/>
      <use xlink:href="#CMR17-29" transform="translate(316.103871 0) scale(0.996264)"/>
     </g>
    </g>
   </g>
  </g>
  <g id="axes_2">
   <g id="patch_8">
    <path d="M 376.250325 271.9 
L 641.964611 271.9 
L 641.964611 50.14 
L 376.250325 50.14 
z
" style="fill: #ffffff"/>
   </g>
   <g id="matplotlib.axis_3">
    <g id="xtick_4">
     <g id="line2d_33">
      <g>
       <use xlink:href="#m587dc8dc76" x="388.328247" y="271.9" style="stroke: #000000; stroke-width: 2"/>
      </g>
     </g>
     <g id="text_13">
      <!-- $\mathdefault{0}$ -->
      <g transform="translate(382.616937 292.696254) scale(0.25 -0.25)">
       <use xlink:href="#CMR17-30" transform="scale(0.996264)"/>
      </g>
     </g>
    </g>
    <g id="xtick_5">
     <g id="line2d_34">
      <g>
       <use xlink:href="#m587dc8dc76" x="509.107468" y="271.9" style="stroke: #000000; stroke-width: 2"/>
      </g>
     </g>
     <g id="text_14">
      <!-- $\mathdefault{100}$ -->
      <g transform="translate(491.973539 292.696254) scale(0.25 -0.25)">
       <use xlink:href="#CMR17-31" transform="scale(0.996264)"/>
       <use xlink:href="#CMR17-30" transform="translate(45.690477 0) scale(0.996264)"/>
       <use xlink:href="#CMR17-30" transform="translate(91.380954 0) scale(0.996264)"/>
      </g>
     </g>
    </g>
    <g id="xtick_6">
     <g id="line2d_35">
      <g>
       <use xlink:href="#m587dc8dc76" x="629.886689" y="271.9" style="stroke: #000000; stroke-width: 2"/>
      </g>
     </g>
     <g id="text_15">
      <!-- $\mathdefault{200}$ -->
      <g transform="translate(612.75276 292.696254) scale(0.25 -0.25)">
       <use xlink:href="#CMR17-32" transform="scale(0.996264)"/>
       <use xlink:href="#CMR17-30" transform="translate(45.690477 0) scale(0.996264)"/>
       <use xlink:href="#CMR17-30" transform="translate(91.380954 0) scale(0.996264)"/>
      </g>
     </g>
    </g>
    <g id="text_16">
     <!-- $t$ -->
     <g transform="translate(504.70418 318.837042) scale(0.25 -0.25)">
      <use xlink:href="#CMMI12-74" transform="scale(0.996264)"/>
     </g>
    </g>
   </g>
   <g id="matplotlib.axis_4">
    <g id="ytick_22">
     <g id="line2d_36">
      <g>
       <use xlink:href="#maf6a30d4f6" x="376.250325" y="271.9" style="stroke: #000000; stroke-width: 2"/>
      </g>
     </g>
    </g>
    <g id="ytick_23">
     <g id="line2d_37">
      <g>
       <use xlink:href="#maf6a30d4f6" x="376.250325" y="182.376728" style="stroke: #000000; stroke-width: 2"/>
      </g>
     </g>
    </g>
    <g id="ytick_24">
     <g id="line2d_38">
      <g>
       <use xlink:href="#maf6a30d4f6" x="376.250325" y="92.853456" style="stroke: #000000; stroke-width: 2"/>
      </g>
     </g>
    </g>
    <g id="ytick_25">
     <g id="line2d_39">
      <g>
       <use xlink:href="#mcff79f224b" x="376.250325" y="244.95081" style="stroke: #000000; stroke-width: 0.6"/>
      </g>
     </g>
    </g>
    <g id="ytick_26">
     <g id="line2d_40">
      <g>
       <use xlink:href="#mcff79f224b" x="376.250325" y="229.186544" style="stroke: #000000; stroke-width: 0.6"/>
      </g>
     </g>
    </g>
    <g id="ytick_27">
     <g id="line2d_41">
      <g>
       <use xlink:href="#mcff79f224b" x="376.250325" y="218.00162" style="stroke: #000000; stroke-width: 0.6"/>
      </g>
     </g>
    </g>
    <g id="ytick_28">
     <g id="line2d_42">
      <g>
       <use xlink:href="#mcff79f224b" x="376.250325" y="209.325918" style="stroke: #000000; stroke-width: 0.6"/>
      </g>
     </g>
    </g>
    <g id="ytick_29">
     <g id="line2d_43">
      <g>
       <use xlink:href="#mcff79f224b" x="376.250325" y="202.237354" style="stroke: #000000; stroke-width: 0.6"/>
      </g>
     </g>
    </g>
    <g id="ytick_30">
     <g id="line2d_44">
      <g>
       <use xlink:href="#mcff79f224b" x="376.250325" y="196.244058" style="stroke: #000000; stroke-width: 0.6"/>
      </g>
     </g>
    </g>
    <g id="ytick_31">
     <g id="line2d_45">
      <g>
       <use xlink:href="#mcff79f224b" x="376.250325" y="191.052429" style="stroke: #000000; stroke-width: 0.6"/>
      </g>
     </g>
    </g>
    <g id="ytick_32">
     <g id="line2d_46">
      <g>
       <use xlink:href="#mcff79f224b" x="376.250325" y="186.473088" style="stroke: #000000; stroke-width: 0.6"/>
      </g>
     </g>
    </g>
    <g id="ytick_33">
     <g id="line2d_47">
      <g>
       <use xlink:href="#mcff79f224b" x="376.250325" y="155.427538" style="stroke: #000000; stroke-width: 0.6"/>
      </g>
     </g>
    </g>
    <g id="ytick_34">
     <g id="line2d_48">
      <g>
       <use xlink:href="#mcff79f224b" x="376.250325" y="139.663272" style="stroke: #000000; stroke-width: 0.6"/>
      </g>
     </g>
    </g>
    <g id="ytick_35">
     <g id="line2d_49">
      <g>
       <use xlink:href="#mcff79f224b" x="376.250325" y="128.478348" style="stroke: #000000; stroke-width: 0.6"/>
      </g>
     </g>
    </g>
    <g id="ytick_36">
     <g id="line2d_50">
      <g>
       <use xlink:href="#mcff79f224b" x="376.250325" y="119.802646" style="stroke: #000000; stroke-width: 0.6"/>
      </g>
     </g>
    </g>
    <g id="ytick_37">
     <g id="line2d_51">
      <g>
       <use xlink:href="#mcff79f224b" x="376.250325" y="112.714082" style="stroke: #000000; stroke-width: 0.6"/>
      </g>
     </g>
    </g>
    <g id="ytick_38">
     <g id="line2d_52">
      <g>
       <use xlink:href="#mcff79f224b" x="376.250325" y="106.720786" style="stroke: #000000; stroke-width: 0.6"/>
      </g>
     </g>
    </g>
    <g id="ytick_39">
     <g id="line2d_53">
      <g>
       <use xlink:href="#mcff79f224b" x="376.250325" y="101.529157" style="stroke: #000000; stroke-width: 0.6"/>
      </g>
     </g>
    </g>
    <g id="ytick_40">
     <g id="line2d_54">
      <g>
       <use xlink:href="#mcff79f224b" x="376.250325" y="96.949816" style="stroke: #000000; stroke-width: 0.6"/>
      </g>
     </g>
    </g>
    <g id="ytick_41">
     <g id="line2d_55">
      <g>
       <use xlink:href="#mcff79f224b" x="376.250325" y="65.904266" style="stroke: #000000; stroke-width: 0.6"/>
      </g>
     </g>
    </g>
    <g id="ytick_42">
     <g id="line2d_56">
      <g>
       <use xlink:href="#mcff79f224b" x="376.250325" y="50.14" style="stroke: #000000; stroke-width: 0.6"/>
      </g>
     </g>
    </g>
   </g>
   <g id="line2d_57">
    <path d="M 388.328247 75.914803 
L 389.536039 76.421053 
L 390.743832 77.24502 
L 391.951624 76.830854 
L 393.159416 78.784476 
L 394.367208 79.056172 
L 396.782793 82.000419 
L 397.990585 80.784432 
L 399.198377 81.941645 
L 400.406169 81.824361 
L 401.613961 82.236411 
L 402.821754 83.499428 
L 404.029546 84.364825 
L 405.237338 84.302368 
L 406.44513 85.378028 
L 407.652922 88.586401 
L 408.860715 87.082966 
L 410.068507 89.933318 
L 411.276299 87.555055 
L 412.484091 90.956521 
L 413.691883 88.032948 
L 414.899676 92.698248 
L 416.107468 93.087435 
L 417.31526 92.389679 
L 418.523052 92.620876 
L 420.938637 94.847712 
L 422.146429 95.508101 
L 423.354221 95.01176 
L 424.562013 97.647224 
L 426.977598 97.912012 
L 428.18539 101.142294 
L 429.393182 99.355499 
L 430.600974 99.447521 
L 431.808767 100.569122 
L 433.016559 101.238649 
L 434.224351 101.43208 
L 435.432143 105.842117 
L 436.639935 104.350667 
L 437.847728 105.625518 
L 439.05552 105.733666 
L 440.263312 103.625862 
L 441.471104 105.625518 
L 442.678896 106.720786 
L 443.886689 110.448618 
L 445.094481 109.602064 
L 446.302273 110.94077 
L 447.510065 111.690879 
L 449.92565 110.204859 
L 451.133442 111.944166 
L 452.341234 108.307923 
L 453.549026 114.572157 
L 454.756819 112.843897 
L 455.964611 113.104834 
L 457.172403 114.982138 
L 458.380195 117.244854 
L 459.587987 116.38083 
L 460.79578 114.301219 
L 462.003572 116.810442 
L 463.211364 115.119764 
L 464.419156 119.958476 
L 465.626948 115.675195 
L 466.834741 119.802646 
L 468.042533 123.384039 
L 469.250325 116.238675 
L 470.458117 118.577995 
L 471.665909 121.715136 
L 472.873702 121.06713 
L 474.081494 122.540634 
L 475.289286 122.540634 
L 476.497078 121.06713 
L 477.70487 126.581412 
L 478.912663 127.518312 
L 480.120455 121.228122 
L 481.328247 125.486144 
L 482.536039 125.847816 
L 483.743832 126.766995 
L 484.951624 127.899486 
L 487.367208 122.540634 
L 488.575 128.478348 
L 489.782793 133.22816 
L 490.990585 134.116872 
L 492.198377 128.091484 
L 493.406169 126.029921 
L 494.613961 130.677772 
L 497.029546 130.677772 
L 498.237338 133.669976 
L 499.44513 129.863513 
L 500.652922 131.299857 
L 501.860715 137.154049 
L 503.068507 133.22816 
L 504.276299 133.892782 
L 506.691883 129.263818 
L 509.107468 135.957663 
L 510.31526 135.957663 
L 511.523052 137.154049 
L 512.730845 136.911809 
L 513.938637 137.88996 
L 515.146429 142.068955 
L 516.354221 136.671068 
L 517.562013 135.026374 
L 518.769806 131.091388 
L 519.977598 139.404936 
L 521.18539 142.624385 
L 523.600974 136.194013 
L 524.808767 142.068955 
L 526.016559 134.568964 
L 527.224351 139.404936 
L 528.432143 137.88996 
L 529.639935 142.068955 
L 530.847728 138.640069 
L 532.05552 139.404936 
L 533.263312 139.663272 
L 534.471104 138.138392 
L 535.678896 137.88996 
L 536.886689 136.911809 
L 538.094481 144.339934 
L 539.302273 138.640069 
L 540.510065 143.759632 
L 541.717857 151.721929 
L 542.92565 138.640069 
L 544.133442 141.794187 
L 545.341234 142.624385 
L 546.549026 135.489231 
L 547.756819 144.339934 
L 548.964611 144.0487 
L 550.172403 144.929028 
L 551.380195 146.134689 
L 552.587987 142.345678 
L 553.79578 149.993668 
L 555.003572 143.187865 
L 556.211364 150.675782 
L 557.419156 143.759632 
L 558.626948 148.338974 
L 559.834741 146.751836 
L 561.042533 146.751836 
L 562.250325 147.696323 
L 563.458117 146.134689 
L 564.665909 147.696323 
L 565.873702 143.759632 
L 567.081494 147.696323 
L 568.289286 146.442038 
L 569.497078 143.759632 
L 570.70487 149.323316 
L 571.912663 148.664327 
L 573.120455 146.751836 
L 574.328247 146.751836 
L 575.536039 148.338974 
L 576.743832 149.323316 
L 577.951624 148.992425 
L 579.159416 147.064123 
L 580.367208 147.064123 
L 581.575 155.818289 
L 582.782793 149.323316 
L 583.990585 151.370076 
L 585.198377 155.040674 
L 586.406169 151.021379 
L 587.613961 159.523898 
L 588.821754 159.95831 
L 590.029546 151.721929 
L 591.237338 159.523898 
L 592.44513 151.021379 
L 593.652922 154.657622 
L 594.860715 149.993668 
L 596.068507 151.721929 
L 597.276299 154.278307 
L 598.484091 146.751836 
L 599.691883 147.378938 
L 600.899676 157.83322 
L 602.107468 152.076995 
L 603.31526 158.249047 
L 604.523052 161.746186 
L 605.730845 148.338974 
L 606.938637 149.993668 
L 608.146429 150.675782 
L 609.354221 156.611775 
L 610.562013 151.370076 
L 611.769806 153.162074 
L 614.18539 148.992425 
L 615.393182 148.664327 
L 616.600974 151.021379 
L 617.808767 156.611775 
L 619.016559 155.427538 
L 620.224351 158.249047 
L 621.432143 148.338974 
L 622.639935 151.370076 
L 623.847728 155.427538 
L 625.05552 157.421793 
L 626.263312 154.278307 
L 627.471104 160.397631 
L 628.678896 153.162074 
L 629.886689 159.523898 
L 629.886689 159.523898 
" clip-path="url(#pe42355411d)" style="fill: none; stroke: #00bfff; stroke-width: 1.5; stroke-linecap: square"/>
   </g>
   <g id="line2d_58">
    <path d="M 388.328247 74.946403 
L 393.159416 77.486243 
L 397.990585 80.324776 
L 404.029546 84.196268 
L 412.484091 89.960342 
L 425.769806 99.059005 
L 433.016559 103.770751 
L 440.263312 108.216515 
L 447.510065 112.375496 
L 454.756819 116.249309 
L 462.003572 119.851514 
L 469.250325 123.201023 
L 476.497078 126.318663 
L 484.951624 129.69057 
L 493.406169 132.805928 
L 501.860715 135.692688 
L 511.523052 138.743696 
L 521.18539 141.560875 
L 532.05552 144.485159 
L 542.92565 147.18272 
L 555.003572 149.948261 
L 568.289286 152.746167 
L 581.575 155.323004 
L 596.068507 157.916175 
L 611.769806 160.504998 
L 628.678896 163.072128 
L 629.886689 163.247661 
L 629.886689 163.247661 
" clip-path="url(#pe42355411d)" style="fill: none; stroke-dasharray: 7.4,3.2; stroke-dashoffset: 0; stroke: #00008b; stroke-width: 2"/>
   </g>
   <g id="line2d_59">
    <path d="M 388.328247 60.335398 
L 389.536039 60.436603 
L 390.743832 60.200867 
L 391.951624 61.083757 
L 393.159416 60.844077 
L 394.367208 60.946616 
L 395.575 61.221384 
L 396.782793 61.29038 
L 397.990585 62.128031 
L 399.198377 62.411307 
L 400.406169 62.340295 
L 401.613961 62.696662 
L 402.821754 62.840129 
L 404.029546 62.625127 
L 408.860715 62.876079 
L 410.068507 63.310087 
L 411.276299 63.164878 
L 412.484091 63.273734 
L 413.691883 63.785794 
L 414.899676 62.840129 
L 416.107468 63.60214 
L 417.31526 62.76833 
L 418.523052 64.304689 
L 419.730845 64.044376 
L 420.938637 63.020211 
L 423.354221 64.00733 
L 425.769806 63.712229 
L 426.977598 64.4917 
L 428.18539 64.155725 
L 429.393182 64.081457 
L 430.600974 63.60214 
L 431.808767 64.4917 
L 433.016559 64.044376 
L 434.224351 64.081457 
L 435.432143 64.566757 
L 437.847728 63.97032 
L 439.05552 63.822629 
L 440.263312 64.044376 
L 441.471104 64.792801 
L 442.678896 64.4917 
L 443.886689 64.830603 
L 445.094481 63.60214 
L 446.302273 62.840129 
L 447.510065 62.948078 
L 448.717857 63.712229 
L 449.92565 63.822629 
L 451.133442 63.565513 
L 452.341234 64.679614 
L 453.549026 64.906317 
L 454.756819 64.94423 
L 455.964611 64.416788 
L 457.172403 64.755035 
L 458.380195 64.454226 
L 459.587987 63.748994 
L 460.79578 64.792801 
L 462.003572 64.679614 
L 463.211364 65.058191 
L 464.419156 65.020167 
L 465.626948 64.792801 
L 466.834741 64.755035 
L 468.042533 64.98218 
L 469.250325 65.096252 
L 470.458117 64.906317 
L 471.665909 64.52921 
L 472.873702 64.98218 
L 474.081494 64.792801 
L 475.289286 65.058191 
L 477.70487 65.13435 
L 478.912663 65.020167 
L 481.328247 64.94423 
L 482.536039 65.210659 
L 483.743832 65.24887 
L 484.951624 64.94423 
L 486.159416 64.830603 
L 487.367208 64.94423 
L 488.575 64.792801 
L 489.782793 64.98218 
L 492.198377 65.172486 
L 493.406169 64.792801 
L 497.029546 65.287118 
L 498.237338 64.342019 
L 501.860715 65.058191 
L 503.068507 64.830603 
L 504.276299 65.058191 
L 505.484091 64.94423 
L 506.691883 65.020167 
L 509.107468 64.641959 
L 510.31526 65.096252 
L 511.523052 65.020167 
L 512.730845 65.40209 
L 513.938637 64.94423 
L 516.354221 65.13435 
L 517.562013 65.020167 
L 518.769806 64.755035 
L 519.977598 65.096252 
L 522.393182 64.4917 
L 523.600974 64.94423 
L 524.808767 64.679614 
L 526.016559 65.020167 
L 527.224351 64.641959 
L 528.432143 65.363728 
L 529.639935 65.24887 
L 530.847728 64.94423 
L 532.05552 64.868442 
L 533.263312 65.210659 
L 534.471104 65.13435 
L 535.678896 65.440489 
L 536.886689 64.98218 
L 538.094481 65.287118 
L 539.302273 64.98218 
L 540.510065 65.096252 
L 541.717857 64.868442 
L 542.92565 65.020167 
L 545.341234 65.020167 
L 548.964611 64.379385 
L 551.380195 64.304689 
L 552.587987 64.00733 
L 553.79578 64.906317 
L 555.003572 65.172486 
L 556.211364 65.020167 
L 557.419156 65.13435 
L 558.626948 64.454226 
L 559.834741 65.020167 
L 561.042533 64.830603 
L 562.250325 65.020167 
L 563.458117 64.717307 
L 564.665909 65.020167 
L 565.873702 64.60434 
L 567.081494 65.020167 
L 568.289286 65.020167 
L 569.497078 65.210659 
L 571.912663 65.210659 
L 573.120455 65.13435 
L 574.328247 64.94423 
L 575.536039 64.94423 
L 576.743832 64.755035 
L 577.951624 65.13435 
L 579.159416 65.24887 
L 581.575 65.058191 
L 583.990585 65.13435 
L 585.198377 64.98218 
L 586.406169 65.172486 
L 587.613961 64.94423 
L 588.821754 64.830603 
L 591.237338 65.096252 
L 592.44513 65.40209 
L 593.652922 65.058191 
L 594.860715 65.13435 
L 596.068507 65.096252 
L 597.276299 64.868442 
L 598.484091 65.210659 
L 599.691883 65.287118 
L 600.899676 64.98218 
L 602.107468 65.210659 
L 603.31526 64.717307 
L 604.523052 64.94423 
L 605.730845 64.717307 
L 606.938637 64.94423 
L 608.146429 64.94423 
L 609.354221 65.325404 
L 610.562013 65.172486 
L 611.769806 64.906317 
L 614.18539 64.679614 
L 615.393182 64.267395 
L 616.600974 65.210659 
L 617.808767 64.868442 
L 619.016559 65.172486 
L 620.224351 65.096252 
L 622.639935 65.172486 
L 626.263312 65.13435 
L 627.471104 64.679614 
L 628.678896 64.830603 
L 629.886689 64.641959 
L 629.886689 64.641959 
" clip-path="url(#pe42355411d)" style="fill: none; stroke: #ff69b4; stroke-width: 1.5; stroke-linecap: square"/>
   </g>
   <g id="line2d_60">
    <path d="M 388.328247 61.090392 
L 393.159416 61.975316 
L 399.198377 62.817535 
L 406.44513 63.557016 
L 414.899676 64.181283 
L 425.769806 64.750811 
L 439.05552 65.214515 
L 455.964611 65.55928 
L 478.912663 65.773728 
L 518.769806 65.876995 
L 629.886689 65.900855 
L 629.886689 65.900855 
" clip-path="url(#pe42355411d)" style="fill: none; stroke-dasharray: 7.4,3.2; stroke-dashoffset: 0; stroke: #bf00bf; stroke-width: 2"/>
   </g>
   <g id="patch_9">
    <path d="M 376.250325 271.9 
L 376.250325 50.14 
" style="fill: none; stroke: #000000; stroke-width: 3; stroke-linejoin: miter; stroke-linecap: square"/>
   </g>
   <g id="patch_10">
    <path d="M 641.964611 271.9 
L 641.964611 50.14 
" style="fill: none; stroke: #000000; stroke-width: 3; stroke-linejoin: miter; stroke-linecap: square"/>
   </g>
   <g id="patch_11">
    <path d="M 376.250325 271.9 
L 641.964611 271.9 
" style="fill: none; stroke: #000000; stroke-width: 3; stroke-linejoin: miter; stroke-linecap: square"/>
   </g>
   <g id="patch_12">
    <path d="M 376.250325 50.14 
L 641.964611 50.14 
" style="fill: none; stroke: #000000; stroke-width: 3; stroke-linejoin: miter; stroke-linecap: square"/>
   </g>
  </g>
  <g id="text_17">
   <!-- $\rm (a)$ -->
   <g transform="translate(94.764611 260.38) scale(0.25 -0.25)">
    <use xlink:href="#CMR17-28" transform="scale(0.996264)"/>
    <use xlink:href="#CMR17-61" transform="translate(35.280768 0) scale(0.996264)"/>
    <use xlink:href="#CMR17-29" transform="translate(80.971245 0) scale(0.996264)"/>
   </g>
  </g>
  <g id="text_18">
   <!-- $\rm (b)$ -->
   <g transform="translate(389.964611 260.38) scale(0.25 -0.25)">
    <defs>
     <path id="CMR17-62" d="M 960 4396 
L 198 4326 
L 198 4160 
C 576 4160 634 4122 634 3817 
L 634 -13 
L 749 -13 
L 934 441 
C 1120 141 1395 -64 1766 -64 
C 2406 -64 3053 500 3053 1370 
C 3053 2188 2477 2790 1830 2790 
C 1434 2790 1152 2579 960 2330 
L 960 4396 
z
M 973 2004 
C 973 2118 973 2138 1062 2272 
C 1312 2657 1670 2688 1792 2688 
C 1984 2688 2643 2585 2643 1376 
C 2643 108 1888 38 1734 38 
C 1536 38 1248 114 1043 486 
C 973 608 973 621 973 735 
L 973 2004 
z
" transform="scale(0.015625)"/>
    </defs>
    <use xlink:href="#CMR17-28" transform="scale(0.996264)"/>
    <use xlink:href="#CMR17-62" transform="translate(35.280768 0) scale(0.996264)"/>
    <use xlink:href="#CMR17-29" transform="translate(86.176138 0) scale(0.996264)"/>
   </g>
  </g>
 </g>
 <defs>
  <clipPath id="pcc8099202f">
   <rect x="83.964611" y="50.14" width="265.714286" height="221.76"/>
  </clipPath>
  <clipPath id="pe42355411d">
   <rect x="376.250325" y="50.14" width="265.714286" height="221.76"/>
  </clipPath>
 </defs>
</svg>
