<?xml version="1.0" encoding="utf-8" standalone="no"?>
<!DOCTYPE svg PUBLIC "-//W3C//DTD SVG 1.1//EN"
  "http://www.w3.org/Graphics/SVG/1.1/DTD/svg11.dtd">
<svg xmlns:xlink="http://www.w3.org/1999/xlink" width="671.077006pt" height="289.319103pt" viewBox="0 0 671.077006 289.319103" xmlns="http://www.w3.org/2000/svg" version="1.1">
 <metadata>
  <rdf:RDF xmlns:dc="http://purl.org/dc/elements/1.1/" xmlns:cc="http://creativecommons.org/ns#" xmlns:rdf="http://www.w3.org/1999/02/22-rdf-syntax-ns#">
   <cc:Work>
    <dc:type rdf:resource="http://purl.org/dc/dcmitype/StillImage"/>
    <dc:date>2024-09-19T15:44:48.709742</dc:date>
    <dc:format>image/svg+xml</dc:format>
    <dc:creator>
     <cc:Agent>
      <dc:title>Matplotlib v3.8.0, https://matplotlib.org/</dc:title>
     </cc:Agent>
    </dc:creator>
   </cc:Work>
  </rdf:RDF>
 </metadata>
 <defs>
  <style type="text/css">*{stroke-linejoin: round; stroke-linecap: butt}</style>
 </defs>
 <g id="figure_1">
  <g id="patch_1">
   <path d="M 0 289.319103 
L 671.077006 289.319103 
L 671.077006 0 
L 0 0 
z
" style="fill: #ffffff"/>
  </g>
  <g id="axes_1">
   <g id="patch_2">
    <path d="M 82.8 230.337528 
L 272.757447 230.337528 
L 272.757447 8.577528 
L 82.8 8.577528 
z
" style="fill: #ffffff"/>
   </g>
   <g id="matplotlib.axis_1">
    <g id="xtick_1">
     <g id="line2d_1">
      <defs>
       <path id="me4c57eb352" d="M 0 0 
L 0 -8 
" style="stroke: #000000; stroke-width: 3"/>
      </defs>
      <g>
       <use xlink:href="#me4c57eb352" x="118.417021" y="230.337528" style="stroke: #000000; stroke-width: 3"/>
      </g>
     </g>
     <g id="line2d_2">
      <defs>
       <path id="md1ae04c5ac" d="M 0 0 
L 0 8 
" style="stroke: #000000; stroke-width: 3"/>
      </defs>
      <g>
       <use xlink:href="#md1ae04c5ac" x="118.417021" y="8.577528" style="stroke: #000000; stroke-width: 3"/>
      </g>
     </g>
     <g id="text_1">
      <!-- $\mathdefault{2}$ -->
      <g transform="translate(112.705712 251.133781) scale(0.25 -0.25)">
       <defs>
        <path id="CMR17-32" d="M 2669 989 
L 2554 989 
C 2490 536 2438 459 2413 420 
C 2381 369 1920 369 1830 369 
L 602 369 
C 832 619 1280 1072 1824 1597 
C 2214 1967 2669 2402 2669 3035 
C 2669 3790 2067 4224 1395 4224 
C 691 4224 262 3604 262 3030 
C 262 2780 448 2748 525 2748 
C 589 2748 781 2787 781 3010 
C 781 3207 614 3264 525 3264 
C 486 3264 448 3258 422 3245 
C 544 3790 915 4058 1306 4058 
C 1862 4058 2227 3617 2227 3035 
C 2227 2479 1901 2000 1536 1584 
L 262 146 
L 262 0 
L 2515 0 
L 2669 989 
z
" transform="scale(0.015625)"/>
       </defs>
       <use xlink:href="#CMR17-32" transform="scale(0.996264)"/>
      </g>
     </g>
    </g>
    <g id="xtick_2">
     <g id="line2d_3">
      <g>
       <use xlink:href="#me4c57eb352" x="165.906383" y="230.337528" style="stroke: #000000; stroke-width: 3"/>
      </g>
     </g>
     <g id="line2d_4">
      <g>
       <use xlink:href="#md1ae04c5ac" x="165.906383" y="8.577528" style="stroke: #000000; stroke-width: 3"/>
      </g>
     </g>
     <g id="text_2">
      <!-- $\mathdefault{4}$ -->
      <g transform="translate(160.195073 251.133781) scale(0.25 -0.25)">
       <defs>
        <path id="CMR17-34" d="M 2150 4122 
C 2150 4256 2144 4256 2029 4256 
L 128 1254 
L 128 1088 
L 1779 1088 
L 1779 457 
C 1779 224 1766 160 1318 160 
L 1197 160 
L 1197 0 
C 1402 0 1747 0 1965 0 
C 2182 0 2528 0 2733 0 
L 2733 160 
L 2611 160 
C 2163 160 2150 224 2150 457 
L 2150 1088 
L 2803 1088 
L 2803 1254 
L 2150 1254 
L 2150 4122 
z
M 1798 3703 
L 1798 1254 
L 256 1254 
L 1798 3703 
z
" transform="scale(0.015625)"/>
       </defs>
       <use xlink:href="#CMR17-34" transform="scale(0.996264)"/>
      </g>
     </g>
    </g>
    <g id="xtick_3">
     <g id="line2d_5">
      <g>
       <use xlink:href="#me4c57eb352" x="213.395745" y="230.337528" style="stroke: #000000; stroke-width: 3"/>
      </g>
     </g>
     <g id="line2d_6">
      <g>
       <use xlink:href="#md1ae04c5ac" x="213.395745" y="8.577528" style="stroke: #000000; stroke-width: 3"/>
      </g>
     </g>
     <g id="text_3">
      <!-- $\mathdefault{6}$ -->
      <g transform="translate(207.684435 251.133781) scale(0.25 -0.25)">
       <defs>
        <path id="CMR17-36" d="M 678 2176 
C 678 3690 1395 4032 1811 4032 
C 1946 4032 2272 4009 2400 3776 
C 2298 3776 2106 3776 2106 3553 
C 2106 3381 2246 3323 2336 3323 
C 2394 3323 2566 3348 2566 3560 
C 2566 3954 2246 4179 1805 4179 
C 1043 4179 243 3390 243 1984 
C 243 253 966 -128 1478 -128 
C 2099 -128 2688 427 2688 1283 
C 2688 2081 2170 2662 1517 2662 
C 1126 2662 838 2407 678 1960 
L 678 2176 
z
M 1478 25 
C 691 25 691 1200 691 1436 
C 691 1896 909 2560 1504 2560 
C 1613 2560 1926 2560 2138 2120 
C 2253 1870 2253 1609 2253 1289 
C 2253 944 2253 690 2118 434 
C 1978 171 1773 25 1478 25 
z
" transform="scale(0.015625)"/>
       </defs>
       <use xlink:href="#CMR17-36" transform="scale(0.996264)"/>
      </g>
     </g>
    </g>
    <g id="xtick_4">
     <g id="line2d_7">
      <g>
       <use xlink:href="#me4c57eb352" x="260.885106" y="230.337528" style="stroke: #000000; stroke-width: 3"/>
      </g>
     </g>
     <g id="line2d_8">
      <g>
       <use xlink:href="#md1ae04c5ac" x="260.885106" y="8.577528" style="stroke: #000000; stroke-width: 3"/>
      </g>
     </g>
     <g id="text_4">
      <!-- $\mathdefault{8}$ -->
      <g transform="translate(255.173797 251.133781) scale(0.25 -0.25)">
       <defs>
        <path id="CMR17-38" d="M 1741 2264 
C 2144 2467 2554 2773 2554 3263 
C 2554 3841 1990 4179 1472 4179 
C 890 4179 378 3759 378 3180 
C 378 3021 416 2747 666 2505 
C 730 2442 998 2251 1171 2130 
C 883 1983 211 1634 211 934 
C 211 279 838 -128 1459 -128 
C 2144 -128 2720 362 2720 1010 
C 2720 1590 2330 1857 2074 2029 
L 1741 2264 
z
M 902 2822 
C 851 2854 595 3051 595 3351 
C 595 3739 998 4032 1459 4032 
C 1965 4032 2336 3676 2336 3262 
C 2336 2669 1670 2331 1638 2331 
C 1632 2331 1626 2331 1574 2370 
L 902 2822 
z
M 2080 1519 
C 2176 1449 2483 1240 2483 851 
C 2483 381 2010 25 1472 25 
C 890 25 448 438 448 940 
C 448 1443 838 1862 1280 2060 
L 2080 1519 
z
" transform="scale(0.015625)"/>
       </defs>
       <use xlink:href="#CMR17-38" transform="scale(0.996264)"/>
      </g>
     </g>
    </g>
    <g id="text_5">
     <!-- $N$ -->
     <g transform="translate(168.014337 277.274569) scale(0.25 -0.25)">
      <defs>
       <path id="CMMI12-4e" d="M 4736 3698 
C 4806 3974 4909 4166 5395 4166 
C 5414 4166 5491 4166 5491 4279 
C 5491 4352 5434 4352 5408 4352 
C 5280 4352 4954 4352 4826 4352 
L 4518 4352 
C 4429 4352 4314 4352 4224 4352 
C 4186 4352 4109 4352 4109 4230 
C 4109 4166 4160 4166 4205 4166 
C 4589 4166 4614 4019 4614 3903 
C 4614 3846 4608 3826 4589 3737 
L 3866 850 
L 2496 4249 
C 2451 4352 2445 4352 2304 4352 
L 1523 4352 
C 1395 4352 1338 4352 1338 4230 
C 1338 4166 1382 4166 1504 4166 
C 1536 4166 1914 4166 1914 4115 
C 1914 4102 1901 4051 1894 4032 
L 1043 635 
C 966 320 813 186 390 186 
C 358 186 294 186 294 67 
C 294 0 358 0 378 0 
C 506 0 832 0 960 0 
L 1267 0 
C 1357 0 1466 0 1555 0 
C 1600 0 1670 0 1670 122 
C 1670 180 1606 186 1581 186 
C 1370 186 1165 224 1165 454 
C 1165 505 1178 562 1190 613 
L 2054 4032 
C 2093 3968 2093 3956 2118 3898 
L 3642 115 
C 3674 38 3686 0 3744 0 
C 3808 0 3814 19 3840 128 
L 4736 3698 
z
" transform="scale(0.015625)"/>
      </defs>
      <use xlink:href="#CMMI12-4e" transform="scale(0.996264)"/>
     </g>
    </g>
   </g>
   <g id="matplotlib.axis_2">
    <g id="ytick_1">
     <g id="line2d_9">
      <defs>
       <path id="m60815618e4" d="M 0 0 
L 8 0 
" style="stroke: #000000; stroke-width: 3"/>
      </defs>
      <g>
       <use xlink:href="#m60815618e4" x="82.8" y="212.596728" style="stroke: #000000; stroke-width: 3"/>
      </g>
     </g>
     <g id="line2d_10">
      <defs>
       <path id="m1ef199bcd7" d="M 0 0 
L -8 0 
" style="stroke: #000000; stroke-width: 3"/>
      </defs>
      <g>
       <use xlink:href="#m1ef199bcd7" x="272.757447" y="212.596728" style="stroke: #000000; stroke-width: 3"/>
      </g>
     </g>
     <g id="text_6">
      <!-- $\mathdefault{2}$ -->
      <g transform="translate(67.877381 221.244854) scale(0.25 -0.25)">
       <use xlink:href="#CMR17-32" transform="scale(0.996264)"/>
      </g>
     </g>
    </g>
    <g id="ytick_2">
     <g id="line2d_11">
      <g>
       <use xlink:href="#m60815618e4" x="82.8" y="156.417528" style="stroke: #000000; stroke-width: 3"/>
      </g>
     </g>
     <g id="line2d_12">
      <g>
       <use xlink:href="#m1ef199bcd7" x="272.757447" y="156.417528" style="stroke: #000000; stroke-width: 3"/>
      </g>
     </g>
     <g id="text_7">
      <!-- $\mathdefault{40}$ -->
      <g transform="translate(56.454761 165.065654) scale(0.25 -0.25)">
       <defs>
        <path id="CMR17-30" d="M 2688 2025 
C 2688 2416 2682 3080 2413 3591 
C 2176 4039 1798 4198 1466 4198 
C 1158 4198 768 4058 525 3597 
C 269 3118 243 2524 243 2025 
C 243 1661 250 1106 448 619 
C 723 -39 1216 -128 1466 -128 
C 1760 -128 2208 -7 2470 600 
C 2662 1042 2688 1559 2688 2025 
z
M 1466 -26 
C 1056 -26 813 325 723 812 
C 653 1188 653 1738 653 2096 
C 653 2588 653 2997 736 3387 
C 858 3929 1216 4096 1466 4096 
C 1728 4096 2067 3923 2189 3400 
C 2272 3036 2278 2607 2278 2096 
C 2278 1680 2278 1169 2202 792 
C 2067 95 1690 -26 1466 -26 
z
" transform="scale(0.015625)"/>
       </defs>
       <use xlink:href="#CMR17-34" transform="scale(0.996264)"/>
       <use xlink:href="#CMR17-30" transform="translate(45.690477 0) scale(0.996264)"/>
      </g>
     </g>
    </g>
    <g id="ytick_3">
     <g id="line2d_13">
      <g>
       <use xlink:href="#m60815618e4" x="82.8" y="97.281528" style="stroke: #000000; stroke-width: 3"/>
      </g>
     </g>
     <g id="line2d_14">
      <g>
       <use xlink:href="#m1ef199bcd7" x="272.757447" y="97.281528" style="stroke: #000000; stroke-width: 3"/>
      </g>
     </g>
     <g id="text_8">
      <!-- $\mathdefault{80}$ -->
      <g transform="translate(56.454761 105.929654) scale(0.25 -0.25)">
       <use xlink:href="#CMR17-38" transform="scale(0.996264)"/>
       <use xlink:href="#CMR17-30" transform="translate(45.690477 0) scale(0.996264)"/>
      </g>
     </g>
    </g>
    <g id="ytick_4">
     <g id="line2d_15">
      <g>
       <use xlink:href="#m60815618e4" x="82.8" y="38.145528" style="stroke: #000000; stroke-width: 3"/>
      </g>
     </g>
     <g id="line2d_16">
      <g>
       <use xlink:href="#m1ef199bcd7" x="272.757447" y="38.145528" style="stroke: #000000; stroke-width: 3"/>
      </g>
     </g>
     <g id="text_9">
      <!-- $\mathdefault{120}$ -->
      <g transform="translate(45.032142 46.793654) scale(0.25 -0.25)">
       <defs>
        <path id="CMR17-31" d="M 1702 4058 
C 1702 4192 1696 4192 1606 4192 
C 1357 3916 979 3827 621 3827 
C 602 3827 570 3827 563 3808 
C 557 3795 557 3782 557 3648 
C 755 3648 1088 3686 1344 3839 
L 1344 461 
C 1344 236 1331 160 781 160 
L 589 160 
L 589 0 
C 896 0 1216 0 1523 0 
C 1830 0 2150 0 2458 0 
L 2458 160 
L 2266 160 
C 1715 160 1702 230 1702 458 
L 1702 4058 
z
" transform="scale(0.015625)"/>
       </defs>
       <use xlink:href="#CMR17-31" transform="scale(0.996264)"/>
       <use xlink:href="#CMR17-32" transform="translate(45.690477 0) scale(0.996264)"/>
       <use xlink:href="#CMR17-30" transform="translate(91.380954 0) scale(0.996264)"/>
      </g>
     </g>
    </g>
    <g id="text_10">
     <!-- $\mathcal{F}_{\mathcal{U}}^{(2)}$ -->
     <g transform="translate(33.712545 139.816986) rotate(-90) scale(0.25 -0.25)">
      <defs>
       <path id="CMSY10-46" d="M 5312 4141 
C 5312 4435 4819 4391 4621 4391 
L 2208 4391 
C 1888 4391 1318 4205 1216 3859 
C 1229 3820 1242 3814 1280 3814 
C 1421 3814 1613 3933 1702 4032 
C 1901 4032 2093 4032 2291 4032 
L 2688 4032 
C 2688 4032 2662 3916 2662 3910 
C 2413 2741 2035 1751 1754 1125 
C 1715 1041 1370 243 1280 167 
C 998 167 787 319 672 568 
C 653 606 653 632 608 632 
C 461 632 109 428 109 320 
C 109 307 115 295 122 282 
C 237 -19 525 -192 838 -192 
C 1165 -192 1542 44 1747 280 
C 1958 523 2381 1569 2547 1952 
L 3782 1952 
C 3776 1945 3770 1939 3770 1932 
C 3770 1907 3808 1888 3834 1888 
C 3974 1888 4339 2067 4339 2266 
C 4339 2310 4294 2304 4218 2304 
L 2682 2304 
C 2848 2880 3066 3443 3181 4032 
L 4026 4032 
C 4186 4032 4634 4064 4749 3929 
C 4762 3888 4742 3821 4762 3788 
C 4774 3775 4794 3775 4813 3775 
C 4966 3775 5312 3967 5312 4141 
z
" transform="scale(0.015625)"/>
       <path id="CMR17-28" d="M 1958 -1561 
C 1958 -1555 1958 -1542 1939 -1523 
C 1645 -1224 858 -407 858 1581 
C 858 3569 1632 4379 1946 4697 
C 1946 4704 1958 4717 1958 4736 
C 1958 4755 1939 4768 1914 4768 
C 1843 4768 1299 4296 986 3594 
C 666 2887 576 2199 576 1588 
C 576 1128 621 351 1005 -471 
C 1312 -1135 1837 -1600 1914 -1600 
C 1946 -1600 1958 -1587 1958 -1561 
z
" transform="scale(0.015625)"/>
       <path id="CMR17-29" d="M 1683 1581 
C 1683 2040 1638 2817 1254 3639 
C 947 4303 422 4768 346 4768 
C 326 4768 301 4761 301 4729 
C 301 4717 307 4710 314 4697 
C 621 4378 1402 3568 1402 1584 
C 1402 -407 627 -1217 314 -1537 
C 307 -1549 301 -1556 301 -1568 
C 301 -1600 326 -1600 346 -1600 
C 416 -1600 960 -1128 1274 -426 
C 1594 281 1683 969 1683 1581 
z
" transform="scale(0.015625)"/>
       <path id="CMSY10-55" d="M 3155 1907 
C 3008 1372 2784 580 2784 88 
C 2784 -83 2893 -160 3046 -160 
C 3302 -160 3782 111 3782 237 
C 3782 269 3750 282 3718 282 
C 3642 282 3526 224 3456 186 
C 3373 199 3328 263 3328 352 
C 3328 1133 4058 3373 4243 3847 
C 4320 4026 4403 4288 4403 4339 
C 4403 4384 4365 4384 4339 4384 
C 4205 4384 3917 4211 3866 4090 
C 3782 3866 3770 3834 3693 3597 
C 3482 2989 2848 1933 2214 1191 
C 2016 967 1389 224 934 224 
C 627 224 435 487 435 910 
C 435 1359 685 1935 1069 2814 
C 1299 3340 1491 3794 1491 4083 
C 1491 4384 1286 4384 1171 4384 
C 678 4384 64 3987 64 3853 
C 64 3815 109 3815 134 3815 
C 211 3815 326 3866 429 3936 
C 474 3968 576 4032 749 4032 
C 890 4032 947 3943 947 3802 
C 947 3520 717 2995 448 2381 
C 26 1421 -109 1011 -109 640 
C -109 218 58 -128 512 -128 
C 909 -128 1491 135 2144 743 
C 2586 1159 2874 1543 3149 1914 
L 3155 1907 
z
" transform="scale(0.015625)"/>
      </defs>
      <use xlink:href="#CMSY10-46" transform="scale(0.996264)"/>
      <use xlink:href="#CMR17-28" transform="translate(81.49978 51.691943) scale(0.697382)"/>
      <use xlink:href="#CMR17-32" transform="translate(106.196201 51.691943) scale(0.697382)"/>
      <use xlink:href="#CMR17-29" transform="translate(138.179383 51.691943) scale(0.697382)"/>
      <use xlink:href="#CMSY10-55" transform="translate(71.606278 -29.27842) scale(0.697382)"/>
     </g>
    </g>
   </g>
   <g id="line2d_17">
    <defs>
     <path id="m9215b568da" d="M 0 4 
C 1.060812 4 2.078319 3.578535 2.828427 2.828427 
C 3.578535 2.078319 4 1.060812 4 0 
C 4 -1.060812 3.578535 -2.078319 2.828427 -2.828427 
C 2.078319 -3.578535 1.060812 -4 0 -4 
C -1.060812 -4 -2.078319 -3.578535 -2.828427 -2.828427 
C -3.578535 -2.078319 -4 -1.060812 -4 0 
C -4 1.060812 -3.578535 2.078319 -2.828427 2.828427 
C -2.078319 3.578535 -1.060812 4 0 4 
z
" style="stroke: #0000ff"/>
    </defs>
    <g clip-path="url(#pdd090e010d)">
     <use xlink:href="#m9215b568da" x="94.67234" y="193.067803" style="fill: #0000ff; stroke: #0000ff"/>
     <use xlink:href="#m9215b568da" x="118.417021" y="179.661042" style="fill: #0000ff; stroke: #0000ff"/>
     <use xlink:href="#m9215b568da" x="142.161702" y="160.486344" style="fill: #0000ff; stroke: #0000ff"/>
     <use xlink:href="#m9215b568da" x="165.906383" y="135.688014" style="fill: #0000ff; stroke: #0000ff"/>
     <use xlink:href="#m9215b568da" x="189.651064" y="104.903666" style="fill: #0000ff; stroke: #0000ff"/>
     <use xlink:href="#m9215b568da" x="213.395745" y="68.290667" style="fill: #0000ff; stroke: #0000ff"/>
     <use xlink:href="#m9215b568da" x="237.140426" y="27.386839" style="fill: #0000ff; stroke: #0000ff"/>
     <use xlink:href="#m9215b568da" x="260.885106" y="27.524231" style="fill: #0000ff; stroke: #0000ff"/>
    </g>
   </g>
   <g id="line2d_18">
    <path d="M 94.67234 205.204728 
L 118.417021 191.899128 
L 142.161702 172.679928 
L 165.906383 147.547128 
L 189.651064 116.500728 
L 213.395745 79.540728 
L 237.140426 38.145528 
L 260.885106 38.145528 
" clip-path="url(#pdd090e010d)" style="fill: none; stroke-dasharray: 7.4,3.2; stroke-dashoffset: 0; stroke: #ff0000; stroke-width: 2"/>
   </g>
   <g id="LineCollection_1">
    <path d="M 70.92766 212.596728 
L 284.629787 212.596728 
" clip-path="url(#pdd090e010d)" style="fill: none; stroke: #000000; stroke-width: 2"/>
   </g>
   <g id="patch_3">
    <path d="M 82.8 230.337528 
L 82.8 8.577528 
" style="fill: none; stroke: #000000; stroke-width: 3; stroke-linejoin: miter; stroke-linecap: square"/>
   </g>
   <g id="patch_4">
    <path d="M 272.757447 230.337528 
L 272.757447 8.577528 
" style="fill: none; stroke: #000000; stroke-width: 3; stroke-linejoin: miter; stroke-linecap: square"/>
   </g>
   <g id="patch_5">
    <path d="M 82.8 230.337528 
L 272.757447 230.337528 
" style="fill: none; stroke: #000000; stroke-width: 3; stroke-linejoin: miter; stroke-linecap: square"/>
   </g>
   <g id="patch_6">
    <path d="M 82.8 8.577528 
L 272.757447 8.577528 
" style="fill: none; stroke: #000000; stroke-width: 3; stroke-linejoin: miter; stroke-linecap: square"/>
   </g>
   <g id="legend_1">
    <g id="patch_7">
     <path d="M 95.4 114.065128 
L 204.802617 114.065128 
Q 208.402617 114.065128 208.402617 110.465128 
L 208.402617 21.177528 
Q 208.402617 17.577528 204.802617 17.577528 
L 95.4 17.577528 
Q 91.8 17.577528 91.8 21.177528 
L 91.8 110.465128 
Q 91.8 114.065128 95.4 114.065128 
L 95.4 114.065128 
z
" style="fill: none; opacity: 0"/>
    </g>
    <g id="line2d_19">
     <g>
      <use xlink:href="#m9215b568da" x="108" y="31.077528" style="fill: #0000ff; stroke: #0000ff"/>
     </g>
    </g>
    <g id="text_11">
     <!-- $\rm numerical$ -->
     <g transform="translate(131.4 37.377528) scale(0.18 -0.18)">
      <defs>
       <path id="CMR17-6e" d="M 2656 1933 
C 2656 2259 2592 2790 1837 2790 
C 1331 2790 1069 2400 973 2144 
L 966 2144 
L 966 2790 
L 211 2720 
L 211 2554 
C 589 2554 646 2515 646 2208 
L 646 428 
C 646 184 621 153 211 153 
L 211 -13 
C 365 0 646 0 813 0 
C 979 0 1267 0 1421 -13 
L 1421 153 
C 1011 153 986 178 986 428 
L 986 1658 
C 986 2247 1344 2688 1792 2688 
C 2266 2688 2317 2266 2317 1958 
L 2317 428 
C 2317 184 2291 153 1882 153 
L 1882 -13 
C 2035 0 2317 0 2483 0 
C 2650 0 2938 0 3091 -13 
L 3091 153 
C 2682 153 2656 178 2656 428 
L 2656 1933 
z
" transform="scale(0.015625)"/>
       <path id="CMR17-75" d="M 1882 2693 
L 1882 2528 
C 2259 2528 2317 2489 2317 2186 
L 2317 1032 
C 2317 500 2029 38 1555 38 
C 1030 38 986 348 986 678 
L 986 2763 
L 211 2693 
L 211 2528 
C 467 2528 640 2528 646 2274 
L 646 1058 
C 646 633 646 361 813 183 
C 896 101 1056 -64 1517 -64 
C 2061 -64 2272 377 2323 506 
L 2330 506 
L 2330 -63 
L 3091 -63 
L 3091 128 
C 2714 128 2656 166 2656 473 
L 2656 2763 
L 1882 2693 
z
" transform="scale(0.015625)"/>
       <path id="CMR17-6d" d="M 4326 1933 
C 4326 2252 4269 2790 3507 2790 
C 3072 2790 2771 2496 2656 2151 
L 2650 2151 
C 2573 2676 2195 2790 1837 2790 
C 1331 2790 1069 2400 973 2144 
L 966 2144 
L 966 2790 
L 211 2720 
L 211 2554 
C 589 2554 646 2515 646 2208 
L 646 428 
C 646 184 621 153 211 153 
L 211 -13 
C 365 0 646 0 813 0 
C 979 0 1267 0 1421 -13 
L 1421 153 
C 1011 153 986 178 986 428 
L 986 1658 
C 986 2247 1344 2688 1792 2688 
C 2266 2688 2317 2266 2317 1958 
L 2317 428 
C 2317 184 2291 153 1882 153 
L 1882 -13 
C 2035 0 2317 0 2483 0 
C 2650 0 2938 0 3091 -13 
L 3091 153 
C 2682 153 2656 178 2656 428 
L 2656 1658 
C 2656 2247 3014 2688 3462 2688 
C 3936 2688 3987 2266 3987 1958 
L 3987 428 
C 3987 184 3962 153 3552 153 
L 3552 -13 
C 3706 0 3987 0 4154 0 
C 4320 0 4608 0 4762 -13 
L 4762 153 
C 4352 153 4326 178 4326 428 
L 4326 1933 
z
" transform="scale(0.015625)"/>
       <path id="CMR17-65" d="M 2438 1472 
C 2464 1498 2464 1511 2464 1576 
C 2464 2238 2118 2816 1389 2816 
C 710 2816 173 2169 173 1383 
C 173 551 781 -64 1459 -64 
C 2176 -64 2458 607 2458 740 
C 2458 784 2419 784 2406 784 
C 2362 784 2355 771 2330 696 
C 2189 265 1837 51 1504 51 
C 1229 51 954 203 781 480 
C 582 803 582 1176 582 1472 
L 2438 1472 
z
M 589 1568 
C 634 2505 1126 2714 1382 2714 
C 1818 2714 2112 2297 2118 1568 
L 589 1568 
z
" transform="scale(0.015625)"/>
       <path id="CMR17-72" d="M 960 1497 
C 960 2112 1222 2688 1702 2688 
C 1747 2688 1792 2682 1837 2662 
C 1837 2662 1696 2617 1696 2452 
C 1696 2298 1818 2234 1914 2234 
C 1990 2234 2131 2279 2131 2458 
C 2131 2663 1926 2790 1709 2790 
C 1222 2790 1011 2317 947 2093 
L 941 2093 
L 941 2790 
L 198 2720 
L 198 2554 
C 576 2554 634 2515 634 2208 
L 634 428 
C 634 184 608 153 198 153 
L 198 -13 
C 352 0 646 0 813 0 
C 998 0 1325 0 1498 -13 
L 1498 153 
C 1037 153 960 153 960 440 
L 960 1497 
z
" transform="scale(0.015625)"/>
       <path id="CMR17-69" d="M 992 3909 
C 992 4049 877 4170 730 4170 
C 589 4170 467 4056 467 3909 
C 467 3769 582 3648 730 3648 
C 870 3648 992 3763 992 3909 
z
M 243 2706 
L 243 2541 
C 602 2541 653 2502 653 2197 
L 653 427 
C 653 184 627 153 218 153 
L 218 -13 
C 371 0 646 0 806 0 
C 960 0 1222 0 1370 -13 
L 1370 153 
C 992 153 979 191 979 420 
L 979 2776 
L 243 2706 
z
" transform="scale(0.015625)"/>
       <path id="CMR17-63" d="M 2234 2240 
C 2112 2240 1933 2240 1933 2017 
C 1933 1838 2080 1787 2163 1787 
C 2208 1787 2394 1807 2394 2024 
C 2394 2467 1958 2803 1466 2803 
C 787 2803 211 2178 211 1363 
C 211 516 813 -64 1466 -64 
C 2259 -64 2458 677 2458 748 
C 2458 774 2451 793 2406 793 
C 2362 793 2355 787 2330 703 
C 2163 180 1798 51 1523 51 
C 1114 51 621 427 621 1369 
C 621 2338 1094 2688 1472 2688 
C 1722 2688 2093 2573 2234 2240 
z
" transform="scale(0.015625)"/>
       <path id="CMR17-61" d="M 2304 1653 
C 2304 2072 2304 2294 2035 2543 
C 1798 2752 1523 2816 1306 2816 
C 800 2816 435 2407 435 1971 
C 435 1728 627 1728 666 1728 
C 749 1728 896 1778 896 1954 
C 896 2112 774 2181 666 2181 
C 640 2181 608 2174 589 2168 
C 723 2592 1069 2714 1293 2714 
C 1613 2714 1965 2429 1965 1885 
L 1965 1600 
C 1587 1600 1133 1549 774 1357 
C 371 1133 256 813 256 570 
C 256 77 832 -64 1171 -64 
C 1523 -64 1850 139 1990 511 
C 2003 233 2182 -18 2464 -18 
C 2598 -18 2938 70 2938 567 
L 2938 920 
L 2822 920 
L 2822 562 
C 2822 178 2650 128 2566 128 
C 2304 128 2304 458 2304 738 
L 2304 1653 
z
M 1965 870 
C 1965 317 1568 38 1216 38 
C 896 38 646 275 646 570 
C 646 761 730 1100 1101 1305 
C 1408 1478 1760 1504 1965 1504 
L 1965 870 
z
" transform="scale(0.015625)"/>
       <path id="CMR17-6c" d="M 979 4396 
L 218 4326 
L 218 4160 
C 595 4160 653 4122 653 3817 
L 653 426 
C 653 184 627 153 218 153 
L 218 -13 
C 371 0 653 0 813 0 
C 979 0 1261 0 1414 -13 
L 1414 153 
C 1005 153 979 178 979 426 
L 979 4396 
z
" transform="scale(0.015625)"/>
      </defs>
      <use xlink:href="#CMR17-6e" transform="scale(0.996264)"/>
      <use xlink:href="#CMR17-75" transform="translate(48.292916 0) scale(0.996264)"/>
      <use xlink:href="#CMR17-6d" transform="translate(99.188286 0) scale(0.996264)"/>
      <use xlink:href="#CMR17-65" transform="translate(176.107875 0) scale(0.996264)"/>
      <use xlink:href="#CMR17-72" transform="translate(216.593536 0) scale(0.996264)"/>
      <use xlink:href="#CMR17-69" transform="translate(251.874304 0) scale(0.996264)"/>
      <use xlink:href="#CMR17-63" transform="translate(276.745362 0) scale(0.996264)"/>
      <use xlink:href="#CMR17-61" transform="translate(317.231023 0) scale(0.996264)"/>
      <use xlink:href="#CMR17-6c" transform="translate(362.9215 0) scale(0.996264)"/>
     </g>
    </g>
    <g id="line2d_20">
     <path d="M 99 62.295267 
L 108 62.295267 
L 117 62.295267 
" style="fill: none; stroke-dasharray: 7.4,3.2; stroke-dashoffset: 0; stroke: #ff0000; stroke-width: 2"/>
    </g>
    <g id="text_12">
     <!-- $\mathcal{F}_{\rm RH}^{(2)}$ -->
     <g transform="translate(131.4 68.595267) scale(0.18 -0.18)">
      <defs>
       <path id="CMR17-52" d="M 2509 2146 
C 3117 2268 3629 2676 3629 3186 
C 3629 3785 2950 4326 2054 4326 
L 333 4326 
L 333 4160 
C 774 4160 845 4160 845 3873 
L 845 415 
C 845 128 774 128 333 128 
L 333 -26 
C 518 -26 851 -26 1050 -26 
C 1248 -26 1581 -26 1766 -26 
L 1766 128 
C 1325 128 1254 128 1254 417 
L 1254 2112 
L 2003 2112 
C 2368 2112 2573 1964 2662 1881 
C 2918 1632 2918 1459 2918 1024 
C 2918 595 2918 377 3110 160 
C 3354 -102 3680 -128 3821 -128 
C 4294 -128 4365 396 4365 503 
C 4365 540 4365 585 4307 585 
C 4256 585 4250 547 4250 522 
C 4218 112 4032 -26 3834 -26 
C 3482 -26 3443 375 3405 764 
C 3386 898 3373 993 3360 1133 
C 3322 1452 3270 1917 2509 2146 
z
M 1984 2214 
L 1254 2214 
L 1254 3913 
C 1254 4129 1267 4160 1523 4160 
L 1990 4160 
C 2522 4160 3142 3977 3142 3190 
C 3142 2372 2464 2214 1984 2214 
z
" transform="scale(0.015625)"/>
       <path id="CMR17-48" d="M 3590 3905 
C 3590 4192 3661 4192 4102 4192 
L 4102 4352 
C 3917 4352 3578 4352 3379 4352 
C 3181 4352 2842 4352 2656 4352 
L 2656 4192 
C 3098 4192 3168 4192 3168 3904 
L 3168 2341 
L 1261 2341 
L 1261 3904 
C 1261 4192 1331 4192 1773 4192 
L 1773 4352 
C 1587 4352 1248 4352 1050 4352 
C 851 4352 512 4352 326 4352 
L 326 4192 
C 768 4192 838 4192 838 3905 
L 838 447 
C 838 160 768 160 326 160 
L 326 0 
C 512 0 851 0 1050 0 
C 1248 0 1587 0 1773 0 
L 1773 160 
C 1331 160 1261 160 1261 446 
L 1261 2176 
L 3168 2176 
L 3168 446 
C 3168 160 3098 160 2656 160 
L 2656 0 
C 2842 0 3181 0 3379 0 
C 3578 0 3917 0 4102 0 
L 4102 160 
C 3661 160 3590 160 3590 447 
L 3590 3905 
z
" transform="scale(0.015625)"/>
      </defs>
      <use xlink:href="#CMSY10-46" transform="scale(0.996264)"/>
      <use xlink:href="#CMR17-28" transform="translate(81.49978 51.691943) scale(0.697382)"/>
      <use xlink:href="#CMR17-32" transform="translate(106.196201 51.691943) scale(0.697382)"/>
      <use xlink:href="#CMR17-29" transform="translate(138.179383 51.691943) scale(0.697382)"/>
      <use xlink:href="#CMR17-52" transform="translate(71.606278 -29.268645) scale(0.697382)"/>
      <use xlink:href="#CMR17-48" transform="translate(119.059843 -29.268645) scale(0.697382)"/>
     </g>
    </g>
    <g id="line2d_21">
     <path d="M 99 95.295035 
L 117 95.295035 
" style="fill: none; stroke: #000000; stroke-width: 2"/>
    </g>
    <g id="text_13">
     <!-- $\mathcal{F}_{\rm Haar}^{(2)}$ -->
     <g transform="translate(131.4 101.595035) scale(0.18 -0.18)">
      <use xlink:href="#CMSY10-46" transform="scale(0.996264)"/>
      <use xlink:href="#CMR17-28" transform="translate(81.49978 51.691943) scale(0.697382)"/>
      <use xlink:href="#CMR17-32" transform="translate(106.196201 51.691943) scale(0.697382)"/>
      <use xlink:href="#CMR17-29" transform="translate(138.179383 51.691943) scale(0.697382)"/>
      <use xlink:href="#CMR17-48" transform="translate(71.606278 -29.268645) scale(0.697382)"/>
      <use xlink:href="#CMR17-61" transform="translate(119.956763 -29.268645) scale(0.697382)"/>
      <use xlink:href="#CMR17-61" transform="translate(151.939945 -29.268645) scale(0.697382)"/>
      <use xlink:href="#CMR17-72" transform="translate(183.923127 -29.268645) scale(0.697382)"/>
     </g>
    </g>
   </g>
  </g>
  <g id="axes_2">
   <g id="patch_8">
    <path d="M 355.86383 230.337528 
L 640.8 230.337528 
L 640.8 8.577528 
L 355.86383 8.577528 
z
" style="fill: #ffffff"/>
   </g>
   <g id="matplotlib.axis_3">
    <g id="xtick_5">
     <g id="line2d_22">
      <g>
       <use xlink:href="#me4c57eb352" x="361.343372" y="230.337528" style="stroke: #000000; stroke-width: 3"/>
      </g>
     </g>
     <g id="line2d_23">
      <g>
       <use xlink:href="#md1ae04c5ac" x="361.343372" y="8.577528" style="stroke: #000000; stroke-width: 3"/>
      </g>
     </g>
     <g id="text_14">
      <!-- $\mathdefault{0}$ -->
      <g transform="translate(355.632062 251.133781) scale(0.25 -0.25)">
       <use xlink:href="#CMR17-30" transform="scale(0.996264)"/>
      </g>
     </g>
    </g>
    <g id="xtick_6">
     <g id="line2d_24">
      <g>
       <use xlink:href="#me4c57eb352" x="498.331915" y="230.337528" style="stroke: #000000; stroke-width: 3"/>
      </g>
     </g>
     <g id="line2d_25">
      <g>
       <use xlink:href="#md1ae04c5ac" x="498.331915" y="8.577528" style="stroke: #000000; stroke-width: 3"/>
      </g>
     </g>
     <g id="text_15">
      <!-- $\mathdefault{5000}$ -->
      <g transform="translate(475.486676 251.133781) scale(0.25 -0.25)">
       <defs>
        <path id="CMR17-35" d="M 730 3692 
C 794 3666 1056 3584 1325 3584 
C 1920 3584 2246 3911 2432 4100 
C 2432 4157 2432 4192 2394 4192 
C 2387 4192 2374 4192 2323 4163 
C 2099 4058 1837 3973 1517 3973 
C 1325 3973 1037 3999 723 4139 
C 653 4171 640 4171 634 4171 
C 602 4171 595 4164 595 4037 
L 595 2203 
C 595 2089 595 2057 659 2057 
C 691 2057 704 2070 736 2114 
C 941 2401 1222 2522 1542 2522 
C 1766 2522 2246 2382 2246 1289 
C 2246 1085 2246 715 2054 421 
C 1894 159 1645 25 1370 25 
C 947 25 518 320 403 814 
C 429 807 480 795 506 795 
C 589 795 749 840 749 1038 
C 749 1210 627 1280 506 1280 
C 358 1280 262 1190 262 1011 
C 262 454 704 -128 1382 -128 
C 2042 -128 2669 440 2669 1264 
C 2669 2030 2170 2624 1549 2624 
C 1222 2624 947 2503 730 2274 
L 730 3692 
z
" transform="scale(0.015625)"/>
       </defs>
       <use xlink:href="#CMR17-35" transform="scale(0.996264)"/>
       <use xlink:href="#CMR17-30" transform="translate(45.690477 0) scale(0.996264)"/>
       <use xlink:href="#CMR17-30" transform="translate(91.380954 0) scale(0.996264)"/>
       <use xlink:href="#CMR17-30" transform="translate(137.071431 0) scale(0.996264)"/>
      </g>
     </g>
    </g>
    <g id="xtick_7">
     <g id="line2d_26">
      <g>
       <use xlink:href="#me4c57eb352" x="635.320458" y="230.337528" style="stroke: #000000; stroke-width: 3"/>
      </g>
     </g>
     <g id="line2d_27">
      <g>
       <use xlink:href="#md1ae04c5ac" x="635.320458" y="8.577528" style="stroke: #000000; stroke-width: 3"/>
      </g>
     </g>
     <g id="text_16">
      <!-- $\mathdefault{10000}$ -->
      <g transform="translate(606.76391 251.133781) scale(0.25 -0.25)">
       <use xlink:href="#CMR17-31" transform="scale(0.996264)"/>
       <use xlink:href="#CMR17-30" transform="translate(45.690477 0) scale(0.996264)"/>
       <use xlink:href="#CMR17-30" transform="translate(91.380954 0) scale(0.996264)"/>
       <use xlink:href="#CMR17-30" transform="translate(137.071431 0) scale(0.996264)"/>
       <use xlink:href="#CMR17-30" transform="translate(182.761908 0) scale(0.996264)"/>
      </g>
     </g>
    </g>
    <g id="text_17">
     <!-- $t$ -->
     <g transform="translate(493.928627 277.274569) scale(0.25 -0.25)">
      <defs>
       <path id="CMMI12-74" d="M 1286 2566 
L 1875 2566 
C 1997 2566 2061 2566 2061 2681 
C 2061 2752 2022 2752 1894 2752 
L 1331 2752 
L 1568 3692 
C 1594 3781 1594 3794 1594 3840 
C 1594 3943 1510 4000 1427 4000 
C 1376 4000 1229 3981 1178 3775 
L 928 2752 
L 326 2752 
C 198 2752 141 2752 141 2630 
C 141 2566 186 2566 307 2566 
L 877 2566 
L 454 881 
C 403 658 384 594 384 511 
C 384 211 595 -64 954 -64 
C 1600 -64 1946 868 1946 912 
C 1946 951 1920 970 1882 970 
C 1869 970 1843 970 1830 944 
C 1824 938 1818 931 1773 829 
C 1638 511 1344 64 973 64 
C 781 64 768 224 768 364 
C 768 370 768 492 787 568 
L 1286 2566 
z
" transform="scale(0.015625)"/>
      </defs>
      <use xlink:href="#CMMI12-74" transform="scale(0.996264)"/>
     </g>
    </g>
   </g>
   <g id="matplotlib.axis_4">
    <g id="ytick_5">
     <g id="line2d_28">
      <g>
       <use xlink:href="#m60815618e4" x="355.86383" y="217.292822" style="stroke: #000000; stroke-width: 3"/>
      </g>
     </g>
     <g id="line2d_29">
      <g>
       <use xlink:href="#m1ef199bcd7" x="640.8" y="217.292822" style="stroke: #000000; stroke-width: 3"/>
      </g>
     </g>
     <g id="text_18">
      <!-- $\mathdefault{2}$ -->
      <g transform="translate(340.941211 225.940948) scale(0.25 -0.25)">
       <use xlink:href="#CMR17-32" transform="scale(0.996264)"/>
      </g>
     </g>
    </g>
    <g id="ytick_6">
     <g id="line2d_30">
      <g>
       <use xlink:href="#m60815618e4" x="355.86383" y="125.97988" style="stroke: #000000; stroke-width: 3"/>
      </g>
     </g>
     <g id="line2d_31">
      <g>
       <use xlink:href="#m1ef199bcd7" x="640.8" y="125.97988" style="stroke: #000000; stroke-width: 3"/>
      </g>
     </g>
     <g id="text_19">
      <!-- $\mathdefault{9}$ -->
      <g transform="translate(340.941211 134.628007) scale(0.25 -0.25)">
       <defs>
        <path id="CMR17-39" d="M 2253 1864 
C 2253 464 1670 31 1190 31 
C 1043 31 685 31 538 294 
C 704 268 826 357 826 518 
C 826 692 685 749 595 749 
C 538 749 365 723 365 506 
C 365 71 742 -128 1203 -128 
C 1939 -128 2688 674 2688 2073 
C 2688 3817 1971 4179 1485 4179 
C 851 4179 243 3628 243 2778 
C 243 1991 762 1408 1414 1408 
C 1952 1408 2189 1903 2253 2112 
L 2253 1864 
z
M 1427 1510 
C 1254 1510 1011 1542 813 1922 
C 678 2169 678 2461 678 2771 
C 678 3146 678 3405 858 3684 
C 947 3817 1114 4032 1485 4032 
C 2240 4032 2240 2885 2240 2632 
C 2240 2182 2035 1510 1427 1510 
z
" transform="scale(0.015625)"/>
       </defs>
       <use xlink:href="#CMR17-39" transform="scale(0.996264)"/>
      </g>
     </g>
    </g>
    <g id="ytick_7">
     <g id="line2d_32">
      <g>
       <use xlink:href="#m60815618e4" x="355.86383" y="34.666939" style="stroke: #000000; stroke-width: 3"/>
      </g>
     </g>
     <g id="line2d_33">
      <g>
       <use xlink:href="#m1ef199bcd7" x="640.8" y="34.666939" style="stroke: #000000; stroke-width: 3"/>
      </g>
     </g>
     <g id="text_20">
      <!-- $\mathdefault{16}$ -->
      <g transform="translate(329.518591 43.315066) scale(0.25 -0.25)">
       <use xlink:href="#CMR17-31" transform="scale(0.996264)"/>
       <use xlink:href="#CMR17-36" transform="translate(45.690477 0) scale(0.996264)"/>
      </g>
     </g>
    </g>
    <g id="text_21">
     <!-- $\mathcal{F}_{\mathcal{U}}^{(2)}(t)$ -->
     <g transform="translate(318.198994 153.28952) rotate(-90) scale(0.25 -0.25)">
      <use xlink:href="#CMSY10-46" transform="scale(0.996264)"/>
      <use xlink:href="#CMR17-28" transform="translate(81.49978 51.691943) scale(0.697382)"/>
      <use xlink:href="#CMR17-32" transform="translate(106.196201 51.691943) scale(0.697382)"/>
      <use xlink:href="#CMR17-29" transform="translate(138.179383 51.691943) scale(0.697382)"/>
      <use xlink:href="#CMSY10-55" transform="translate(71.606278 -29.27842) scale(0.697382)"/>
      <use xlink:href="#CMR17-28" transform="translate(163.373935 0) scale(0.996264)"/>
      <use xlink:href="#CMMI12-74" transform="translate(198.654703 0) scale(0.996264)"/>
      <use xlink:href="#CMR17-29" transform="translate(233.881033 0) scale(0.996264)"/>
     </g>
    </g>
   </g>
   <g id="line2d_34">
    <path d="M 361.343372 210.476879 
L 366.822913 210.290084 
L 372.302455 209.439666 
L 377.781997 207.988818 
L 383.261538 206.106912 
L 388.74108 203.992777 
L 394.220622 201.819367 
L 399.700164 199.713665 
L 405.179705 197.75587 
L 410.659247 195.987388 
L 416.138789 194.421815 
L 421.618331 193.055369 
L 427.097872 191.87502 
L 432.577414 190.86351 
L 438.056956 190.001964 
L 443.536498 189.271365 
L 449.016039 188.653555 
L 454.495581 188.13189 
L 459.975123 187.691575 
L 465.454664 187.319756 
L 470.934206 187.005451 
L 476.413748 186.739382 
L 481.89329 186.513766 
L 487.372831 186.322105 
L 492.852373 186.158983 
L 498.331915 186.019887 
L 503.811457 185.901056 
L 509.290998 185.799351 
L 514.77054 185.712149 
L 520.250082 185.637254 
L 525.729624 185.57282 
L 531.209165 185.517299 
L 536.688707 185.469383 
L 542.168249 185.427969 
L 547.647791 185.392124 
L 553.127332 185.361056 
L 558.606874 185.334093 
L 564.086416 185.310662 
L 569.565957 185.290276 
L 575.045499 185.272516 
L 580.525041 185.257028 
L 586.004583 185.243504 
L 591.484124 185.231682 
L 596.963666 185.221338 
L 602.443208 185.212277 
L 607.92275 185.204331 
L 613.402291 185.197357 
L 618.881833 185.191229 
L 624.361375 185.185839 
L 629.840917 185.181094 
L 635.320458 185.176913 
" clip-path="url(#p9fd3321210)" style="fill: none; stroke: #1f77b4; stroke-width: 1.5; stroke-linecap: square"/>
   </g>
   <g id="line2d_35">
    <path d="M 361.343372 210.476879 
L 366.822913 199.7106 
L 372.302455 165.617851 
L 377.781997 124.919265 
L 383.261538 91.578366 
L 388.74108 68.592656 
L 394.220622 53.872755 
L 399.700164 44.735164 
L 405.179705 39.086867 
L 410.659247 35.556728 
L 416.138789 33.313237 
L 421.618331 31.862657 
L 427.097872 30.909679 
L 432.577414 30.27462 
L 438.056956 29.846048 
L 443.536498 29.553576 
L 449.016039 29.351997 
L 454.495581 29.211832 
L 459.975123 29.1136 
L 465.454664 29.044267 
L 470.934206 28.995018 
L 476.413748 28.959833 
L 481.89329 28.934565 
L 487.372831 28.916333 
L 492.852373 28.90312 
L 498.331915 28.893507 
L 503.811457 28.886488 
L 509.290998 28.881346 
L 514.77054 28.877568 
L 520.250082 28.874784 
L 525.729624 28.872727 
L 531.209165 28.871204 
L 536.688707 28.870074 
L 542.168249 28.869233 
L 547.647791 28.868606 
L 553.127332 28.868139 
L 558.606874 28.867789 
L 564.086416 28.867526 
L 569.565957 28.86733 
L 575.045499 28.867182 
L 580.525041 28.86707 
L 586.004583 28.866986 
L 591.484124 28.866922 
L 596.963666 28.866874 
L 602.443208 28.866837 
L 607.92275 28.866809 
L 613.402291 28.866787 
L 618.881833 28.866771 
L 624.361375 28.866758 
L 629.840917 28.866748 
L 635.320458 28.86674 
" clip-path="url(#p9fd3321210)" style="fill: none; stroke: #ff7f0e; stroke-width: 1.5; stroke-linecap: square"/>
   </g>
   <g id="line2d_36">
    <path d="M 361.343372 210.476879 
L 366.822913 205.475016 
L 372.302455 189.946535 
L 377.781997 172.822864 
L 383.261538 160.38661 
L 388.74108 152.818463 
L 394.220622 148.422766 
L 399.700164 145.822543 
L 405.179705 144.206792 
L 410.659247 143.133134 
L 416.138789 142.36948 
L 421.618331 141.794609 
L 427.097872 141.343349 
L 432.577414 140.978652 
L 438.056956 140.677919 
L 443.536498 140.426422 
L 449.016039 140.214059 
L 454.495581 140.033589 
L 459.975123 139.879607 
L 465.454664 139.747915 
L 470.934206 139.635148 
L 476.413748 139.538531 
L 481.89329 139.455735 
L 487.372831 139.384777 
L 492.852373 139.323963 
L 498.331915 139.271839 
L 503.811457 139.227153 
L 509.290998 139.188836 
L 514.77054 139.155967 
L 520.250082 139.12776 
L 525.729624 139.103543 
L 531.209165 139.082739 
L 536.688707 139.064859 
L 542.168249 139.049482 
L 547.647791 139.036251 
L 553.127332 139.024859 
L 558.606874 139.015044 
L 564.086416 139.006583 
L 569.565957 138.999285 
L 575.045499 138.992986 
L 580.525041 138.987546 
L 586.004583 138.982845 
L 591.484124 138.97878 
L 596.963666 138.975263 
L 602.443208 138.972219 
L 607.92275 138.969582 
L 613.402291 138.967296 
L 618.881833 138.965314 
L 624.361375 138.963594 
L 629.840917 138.9621 
L 635.320458 138.960803 
" clip-path="url(#p9fd3321210)" style="fill: none; stroke: #2ca02c; stroke-width: 1.5; stroke-linecap: square"/>
   </g>
   <g id="line2d_37">
    <path d="M 361.343372 210.476879 
L 366.822913 208.997267 
L 372.302455 203.495294 
L 377.781997 194.573697 
L 383.261538 183.646536 
L 388.74108 172.06086 
L 394.220622 160.764038 
L 399.700164 150.285349 
L 405.179705 140.843921 
L 410.659247 132.4644 
L 416.138789 125.07251 
L 421.618331 118.559257 
L 427.097872 112.810413 
L 432.577414 107.718895 
L 438.056956 103.191479 
L 443.536498 99.149004 
L 449.016039 95.523733 
L 454.495581 92.257657 
L 459.975123 89.301584 
L 465.454664 86.614158 
L 470.934206 84.1607 
L 476.413748 81.912082 
L 481.89329 79.843735 
L 487.372831 77.934823 
L 492.852373 76.167575 
L 498.331915 74.526754 
L 503.811457 72.999223 
L 509.290998 71.573595 
L 514.77054 70.23996 
L 520.250082 68.989647 
L 525.729624 67.815041 
L 531.209165 66.709429 
L 536.688707 65.666865 
L 542.168249 64.682069 
L 547.647791 63.750335 
L 553.127332 62.867455 
L 558.606874 62.029654 
L 564.086416 61.233537 
L 569.565957 60.476044 
L 575.045499 59.754404 
L 580.525041 59.066109 
L 586.004583 58.408879 
L 591.484124 57.780637 
L 596.963666 57.179489 
L 602.443208 56.603701 
L 607.92275 56.051687 
L 613.402291 55.521989 
L 618.881833 55.013266 
L 624.361375 54.524284 
L 629.840917 54.053904 
L 635.320458 53.601072 
" clip-path="url(#p9fd3321210)" style="fill: none; stroke: #d62728; stroke-width: 1.5; stroke-linecap: square"/>
   </g>
   <g id="line2d_38">
    <path d="M 361.343372 210.476879 
L 366.822913 209.826913 
L 372.302455 207.273126 
L 377.781997 203.103459 
L 383.261538 198.015613 
L 388.74108 192.685856 
L 394.220622 187.571496 
L 399.700164 182.904427 
L 405.179705 178.762228 
L 410.659247 175.139591 
L 416.138789 171.993848 
L 421.618331 169.268687 
L 427.097872 166.905941 
L 432.577414 164.851282 
L 438.056956 163.05672 
L 443.536498 161.481285 
L 449.016039 160.090716 
L 454.495581 158.856661 
L 459.975123 157.755751 
L 465.454664 156.768693 
L 470.934206 155.879499 
L 476.413748 155.074853 
L 481.89329 154.343605 
L 487.372831 153.67638 
L 492.852373 153.065257 
L 498.331915 152.503518 
L 503.811457 151.985439 
L 509.290998 151.506128 
L 514.77054 151.061379 
L 520.250082 150.647567 
L 525.729624 150.261552 
L 531.209165 149.9006 
L 536.688707 149.562326 
L 542.168249 149.244638 
L 547.647791 148.945694 
L 553.127332 148.663866 
L 558.606874 148.397711 
L 564.086416 148.145946 
L 569.565957 147.907424 
L 575.045499 147.681119 
L 580.525041 147.466109 
L 586.004583 147.261562 
L 591.484124 147.066729 
L 596.963666 146.88093 
L 602.443208 146.703548 
L 607.92275 146.534021 
L 613.402291 146.371837 
L 618.881833 146.216527 
L 624.361375 146.067662 
L 629.840917 145.924849 
L 635.320458 145.787725 
" clip-path="url(#p9fd3321210)" style="fill: none; stroke: #9467bd; stroke-width: 1.5; stroke-linecap: square"/>
   </g>
   <g id="line2d_39">
    <path d="M 361.343372 210.476879 
L 366.822913 204.197601 
L 372.302455 184.478514 
L 377.781997 161.170546 
L 383.261538 141.315799 
L 388.74108 125.875872 
L 394.220622 113.978493 
L 399.700164 104.672158 
L 405.179705 97.209786 
L 410.659247 91.082373 
L 416.138789 85.948342 
L 421.618331 81.573475 
L 427.097872 77.798078 
L 432.577414 74.510973 
L 438.056956 71.627633 
L 443.536498 69.080061 
L 449.016039 66.813462 
L 454.495581 64.783956 
L 459.975123 62.956318 
L 465.454664 61.302032 
L 470.934206 59.797768 
L 476.413748 58.424239 
L 481.89329 57.165345 
L 487.372831 56.007532 
L 492.852373 54.939293 
L 498.331915 53.9508 
L 503.811457 53.033596 
L 509.290998 52.180372 
L 514.77054 51.384773 
L 520.250082 50.641248 
L 525.729624 49.94493 
L 531.209165 49.291529 
L 536.688707 48.677255 
L 542.168249 48.098746 
L 547.647791 47.553008 
L 553.127332 47.037368 
L 558.606874 46.549434 
L 564.086416 46.087056 
L 569.565957 45.648298 
L 575.045499 45.231414 
L 580.525041 44.834824 
L 586.004583 44.457093 
L 591.484124 44.096919 
L 596.963666 43.753116 
L 602.443208 43.424599 
L 607.92275 43.110379 
L 613.402291 42.809547 
L 618.881833 42.521272 
L 624.361375 42.244787 
L 629.840917 41.979387 
L 635.320458 41.724423 
" clip-path="url(#p9fd3321210)" style="fill: none; stroke: #8c564b; stroke-width: 1.5; stroke-linecap: square"/>
   </g>
   <g id="LineCollection_2">
    <path d="M 355.86383 34.666939 
L 640.8 34.666939 
" clip-path="url(#p9fd3321210)" style="fill: none; stroke-dasharray: 7.4,3.2; stroke-dashoffset: 0; stroke: #000000; stroke-width: 2"/>
   </g>
   <g id="LineCollection_3">
    <path d="M 355.86383 217.292822 
L 640.8 217.292822 
" clip-path="url(#p9fd3321210)" style="fill: none; stroke: #6e7074; stroke-width: 2"/>
   </g>
   <g id="patch_9">
    <path d="M 355.86383 230.337528 
L 355.86383 8.577528 
" style="fill: none; stroke: #000000; stroke-width: 3; stroke-linejoin: miter; stroke-linecap: square"/>
   </g>
   <g id="patch_10">
    <path d="M 640.8 230.337528 
L 640.8 8.577528 
" style="fill: none; stroke: #000000; stroke-width: 3; stroke-linejoin: miter; stroke-linecap: square"/>
   </g>
   <g id="patch_11">
    <path d="M 355.86383 230.337528 
L 640.8 230.337528 
" style="fill: none; stroke: #000000; stroke-width: 3; stroke-linejoin: miter; stroke-linecap: square"/>
   </g>
   <g id="patch_12">
    <path d="M 355.86383 8.577528 
L 640.8 8.577528 
" style="fill: none; stroke: #000000; stroke-width: 3; stroke-linejoin: miter; stroke-linecap: square"/>
   </g>
  </g>
  <g id="text_22">
   <!-- $\rm (a)$ -->
   <g transform="translate(7.2 25.857528) scale(0.25 -0.25)">
    <use xlink:href="#CMR17-28" transform="scale(0.996264)"/>
    <use xlink:href="#CMR17-61" transform="translate(35.280768 0) scale(0.996264)"/>
    <use xlink:href="#CMR17-29" transform="translate(80.971245 0) scale(0.996264)"/>
   </g>
  </g>
  <g id="text_23">
   <!-- $\rm (b)$ -->
   <g transform="translate(295.2 25.857528) scale(0.25 -0.25)">
    <defs>
     <path id="CMR17-62" d="M 960 4396 
L 198 4326 
L 198 4160 
C 576 4160 634 4122 634 3817 
L 634 -13 
L 749 -13 
L 934 441 
C 1120 141 1395 -64 1766 -64 
C 2406 -64 3053 500 3053 1370 
C 3053 2188 2477 2790 1830 2790 
C 1434 2790 1152 2579 960 2330 
L 960 4396 
z
M 973 2004 
C 973 2118 973 2138 1062 2272 
C 1312 2657 1670 2688 1792 2688 
C 1984 2688 2643 2585 2643 1376 
C 2643 108 1888 38 1734 38 
C 1536 38 1248 114 1043 486 
C 973 608 973 621 973 735 
L 973 2004 
z
" transform="scale(0.015625)"/>
    </defs>
    <use xlink:href="#CMR17-28" transform="scale(0.996264)"/>
    <use xlink:href="#CMR17-62" transform="translate(35.280768 0) scale(0.996264)"/>
    <use xlink:href="#CMR17-29" transform="translate(86.176138 0) scale(0.996264)"/>
   </g>
  </g>
 </g>
 <defs>
  <clipPath id="pdd090e010d">
   <rect x="82.8" y="8.577528" width="189.957447" height="221.76"/>
  </clipPath>
  <clipPath id="p9fd3321210">
   <rect x="355.86383" y="8.577528" width="284.93617" height="221.76"/>
  </clipPath>
 </defs>
</svg>
